<?xml version="1.0" standalone="no"?>
<!DOCTYPE svg PUBLIC "-//W3C//DTD SVG 1.1//EN" "http://www.w3.org/Graphics/SVG/1.1/DTD/svg11.dtd" >
<svg xmlns="http://www.w3.org/2000/svg" xmlns:xlink="http://www.w3.org/1999/xlink" version="1.1">
<metadata>
Created by FontForge 20170731 at Fri Oct 30 19:36:56 2020
 By Aleksey,,,
(c) 1990, 1992 Adobe Systems Incorporated. All rights reserved.
</metadata>
<defs>
<font id="DINNeuzeitGroteskStd-Light" horiz-adv-x="491" >
  <font-face 
    font-family="DIN Neuzeit Grotesk Std Light"
    font-weight="300"
    font-stretch="normal"
    units-per-em="2048"
    panose-1="2 11 5 2 2 2 3 2 2 4"
    ascent="1556"
    descent="-492"
    x-height="1067"
    cap-height="1556"
    bbox="-338 -512 2050 1976"
    underline-thickness="102"
    underline-position="-307"
    unicode-range="U+0020-FB02"
  />
<missing-glyph horiz-adv-x="1024" 
d="M0 0v1434h1024v-1434h-1024zM512 809l348 522h-696zM573 717l349 -522v1044zM164 102h696l-348 523zM102 1239v-1044l349 522z" />
    <glyph glyph-name="f_i" unicode="fi" horiz-adv-x="1062" 
d="M201 1067v162q0 161 99.5 246.5t266.5 93.5v-185h-37q-68 0 -106.5 -48.5t-38.5 -121.5v-147h174v-162h-174v-905h-184v905h-162v162h162zM725 0v1067h184v-1067h-184zM688 1405q0 54 37.5 91.5t91.5 37.5t91.5 -37.5t37.5 -91.5t-37.5 -91.5t-91.5 -37.5t-91.5 37.5
t-37.5 91.5z" />
    <glyph glyph-name="f_l" unicode="fl" horiz-adv-x="1062" 
d="M195 1067v162q0 161 99 246.5t265 93.5v-185h-35q-68 0 -106.5 -48.5t-38.5 -121.5v-147h180v-162h-174v-905h-184v905h-162v162h156zM725 319v1237h184v-1222q0 -84 34.5 -123t84.5 -39h55v-172h-75q-133 0 -208 78.5t-75 240.5z" />
    <glyph glyph-name=".notdef" horiz-adv-x="1024" 
d="M0 0v1434h1024v-1434h-1024zM512 809l348 522h-696zM573 717l349 -522v1044zM164 102h696l-348 523zM102 1239v-1044l349 522z" />
    <glyph glyph-name=".null" horiz-adv-x="0" 
 />
    <glyph glyph-name="nonmarkingreturn" horiz-adv-x="682" 
 />
    <glyph glyph-name="space" unicode=" " horiz-adv-x="532" 
 />
    <glyph glyph-name="exclam" unicode="!" horiz-adv-x="720" 
d="M225 119q0 55 39.5 95t95.5 40t96 -40t40 -95t-40 -95t-96 -40t-95.5 40t-39.5 95zM262 375v1181h197v-1181h-197z" />
    <glyph glyph-name="quotedbl" unicode="&#x22;" horiz-adv-x="1064" 
d="M301 979v577h152v-577h-152zM612 979v577h152v-577h-152z" />
    <glyph glyph-name="numbersign" unicode="#" horiz-adv-x="1064" 
d="M647 588l45 327h-274l-45 -327h274zM711 1042l63 461h139l-63 -461h211v-127h-230l-45 -327h209v-127h-227l-63 -461h-140l64 461h-275l-63 -461h-139l63 461h-211v127h229l46 327h-209v127h227l63 461h140l-64 -461h275z" />
    <glyph glyph-name="dollar" unicode="$" horiz-adv-x="1064" 
d="M469 881v477q-61 -9 -106 -35t-68.5 -61.5t-34 -71.5t-10.5 -74q0 -82 53.5 -138.5t165.5 -96.5zM584 633v-488q113 9 184.5 76t71.5 160q0 155 -242 246zM469 -170v154q-191 15 -307 126t-133 312h196q24 -238 244 -277v529l-70 26q-175 65 -260.5 165t-85.5 245
q0 171 118.5 280.5t297.5 129.5v153h115v-153q181 -13 298.5 -128.5t131.5 -324.5h-185q-19 123 -82 199.5t-163 91.5v-518l90 -33q362 -128 362 -410q0 -174 -124.5 -288.5t-327.5 -124.5v-154h-115z" />
    <glyph glyph-name="percent" unicode="%" horiz-adv-x="1857" 
d="M610 1085v115q0 86 -34 133t-103 47t-103 -47t-34 -133v-115q0 -178 137 -178t137 178zM420 -16l856 1536h162l-856 -1536h-162zM1522 301v115q0 85 -34.5 132.5t-103.5 47.5t-103 -47t-34 -133v-115q0 -178 137 -178q69 0 103.5 46.5t34.5 131.5zM174 1059v168
q0 134 83 213.5t216 79.5t216 -79.5t83 -213.5v-168q0 -133 -82.5 -212t-216.5 -79t-216.5 79t-82.5 212zM1085 274v168q0 134 83 213.5t216 79.5t216 -79.5t83 -213.5v-168q0 -133 -82.5 -211.5t-216.5 -78.5t-216.5 78.5t-82.5 211.5z" />
    <glyph glyph-name="ampersand" unicode="&#x26;" horiz-adv-x="1517" 
d="M934 387l-270 395q-191 -117 -262.5 -199.5t-71.5 -170.5q0 -99 70.5 -171.5t170.5 -72.5q80 0 167 55.5t196 163.5zM864 1219q0 52 -29.5 87t-80.5 35q-48 0 -84.5 -33.5t-36.5 -95.5q0 -43 22 -89t68 -111q141 96 141 207zM1071 514l225 205l125 -129l-245 -221
l264 -369h-240l-166 240q-136 -138 -238.5 -197t-232.5 -59q-181 0 -299.5 121.5t-118.5 293.5q0 88 28 162t85.5 137t132 115.5t180.5 108.5q-71 97 -96.5 156t-25.5 128q0 132 86.5 214.5t218.5 82.5q71 0 129.5 -26.5t93.5 -67.5t53.5 -87t18.5 -89q0 -115 -60 -201
t-172 -155z" />
    <glyph glyph-name="quotesingle" unicode="'" horiz-adv-x="606" 
d="M227 979v577h152v-577h-152z" />
    <glyph glyph-name="parenleft" unicode="(" horiz-adv-x="720" 
d="M668 -340l-138 -111q-185 230 -287 496.5t-102 544.5t102 544t287 496l138 -110q-159 -200 -244.5 -440t-85.5 -490t85.5 -490t244.5 -440z" />
    <glyph glyph-name="parenright" unicode=")" horiz-adv-x="720" 
d="M190 -451l-137 111q159 200 244.5 440t85.5 490t-85.5 490t-244.5 440l137 110q185 -231 287.5 -497t102.5 -543q0 -278 -102.5 -544.5t-287.5 -496.5z" />
    <glyph glyph-name="asterisk" unicode="*" horiz-adv-x="835" 
d="M358 1284l-8 272h135l-8 -272l246 92l37 -127l-250 -75l170 -213l-113 -70l-149 217l-150 -217l-112 70l170 213l-250 75l37 127z" />
    <glyph glyph-name="plus" unicode="+" horiz-adv-x="1228" 
d="M539 594v442h151v-442h443v-152h-443v-442h-151v442h-443v152h443z" />
    <glyph glyph-name="comma" unicode="," horiz-adv-x="532" 
d="M8 -283l205 537l186 -90l-258 -506z" />
    <glyph glyph-name="hyphen" unicode="-" horiz-adv-x="606" 
d="M61 473v184h484v-184h-484z" />
    <glyph glyph-name="period" unicode="." horiz-adv-x="532" 
d="M131 119q0 55 39.5 95t95.5 40t95.5 -40t39.5 -95t-39.5 -95t-95.5 -40t-95.5 40t-39.5 95z" />
    <glyph glyph-name="slash" unicode="/" horiz-adv-x="948" 
d="M41 -25l704 1606h162l-704 -1606h-162z" />
    <glyph glyph-name="zero" unicode="0" horiz-adv-x="1064" 
d="M88 485v576q0 124 52 227.5t154.5 167.5t237.5 64t238 -64t155 -167.5t52 -227.5v-576q0 -247 -120.5 -374t-324.5 -127t-324 127t-120 374zM793 426v641q0 117 -66.5 199t-194.5 82t-194 -81.5t-66 -199.5v-641q0 -118 66 -199.5t194 -81.5t194.5 82t66.5 199z" />
    <glyph glyph-name="one" unicode="1" horiz-adv-x="831" 
d="M92 1081v197l477 268v-1546h-184v1255z" />
    <glyph glyph-name="two" unicode="2" horiz-adv-x="1064" 
d="M51 0l576 858q38 57 58 91t40 89.5t20 104.5q0 85 -63 145t-152 60q-110 0 -180.5 -61.5t-79.5 -192.5h-184q4 190 123 308t307 118q82 0 156 -24.5t132 -71t92 -118.5t34 -161q0 -140 -78 -258l-473 -715h539v-172h-867z" />
    <glyph glyph-name="three" unicode="3" horiz-adv-x="1064" 
d="M162 711l436 620h-506v172h834l-398 -577q192 0 315.5 -123t123.5 -330q0 -105 -39 -197t-105 -155.5t-154.5 -100t-185.5 -36.5q-81 0 -140.5 10.5t-117 38.5t-107.5 80t-98 133l158 88q95 -189 291 -189q76 0 146 35.5t118.5 109t48.5 169.5q0 146 -93 236.5t-240 90.5
q-70 0 -142.5 -28t-118.5 -72z" />
    <glyph glyph-name="four" unicode="4" horiz-adv-x="1064" 
d="M637 535v536h-4l-373 -536h377zM637 0v373h-612v82l759 1083h37v-1003h170v-162h-170v-373h-184z" />
    <glyph glyph-name="five" unicode="5" horiz-adv-x="1064" 
d="M162 657l-21 15v831h727v-172h-555v-422q98 41 197 41q62 0 126 -18.5t124.5 -57.5t108 -93.5t76 -134t28.5 -171.5q0 -204 -136 -347.5t-335 -143.5q-167 0 -278.5 65.5t-192.5 198.5l153 100q47 -97 126 -150t177 -53q52 0 103.5 19.5t96.5 57.5t73 103t28 146
q0 137 -89.5 227t-221.5 90q-173 0 -315 -131z" />
    <glyph glyph-name="six" unicode="6" horiz-adv-x="1064" 
d="M252 444q0 -139 80.5 -219t199.5 -80q124 0 202.5 82.5t78.5 216.5t-78.5 217.5t-202.5 83.5q-119 0 -199.5 -80.5t-80.5 -220.5zM647 1520h221l-424 -627l5 -4q44 18 126 18q124 0 222.5 -66t149 -167.5t50.5 -214.5q0 -206 -132 -340.5t-322 -134.5q-133 0 -240 54.5
t-171 160t-64 245.5q0 103 39 199.5t145 261.5z" />
    <glyph glyph-name="seven" unicode="7" horiz-adv-x="1064" 
d="M147 0l558 1331h-609v172h873l-625 -1503h-197z" />
    <glyph glyph-name="eight" unicode="8" horiz-adv-x="1064" 
d="M813 436q0 128 -81.5 207.5t-199.5 79.5t-199 -79.5t-81 -207.5q0 -130 80.5 -210.5t199.5 -80.5t200 80.5t81 210.5zM752 1130q0 98 -63.5 163t-156.5 65t-156 -65t-63 -163q0 -96 63 -159.5t156 -63.5t156.5 63.5t63.5 159.5zM68 426q0 136 69.5 240.5t186.5 152.5
q-91 45 -143 125.5t-52 181.5q0 57 14.5 112t46.5 106.5t78 90t114.5 62t149.5 23.5t149.5 -23.5t114.5 -62.5t78.5 -90t47 -106t14.5 -112q0 -101 -52 -181.5t-143 -125.5q117 -48 186.5 -152.5t69.5 -240.5q0 -117 -54 -216.5t-162 -162.5t-249 -63t-249 63t-161.5 162.5
t-53.5 216.5z" />
    <glyph glyph-name="nine" unicode="9" horiz-adv-x="1064" 
d="M813 1059q0 139 -81 219t-200 80q-124 0 -202 -82.5t-78 -216.5t78 -217.5t202 -83.5q119 0 200 80.5t81 220.5zM197 -16l424 626l-5 4q-44 -18 -127 -18q-94 0 -174.5 38.5t-133.5 102t-83 143.5t-30 164q0 206 132 341t322 135q133 0 240 -54.5t171 -160.5t64 -246
q0 -103 -39 -199.5t-145 -261.5l-395 -614h-221z" />
    <glyph glyph-name="colon" unicode=":" horiz-adv-x="532" 
d="M131 119q0 55 39.5 95t95.5 40t95.5 -40t39.5 -95t-39.5 -95t-95.5 -40t-95.5 40t-39.5 95zM131 956q0 56 40 96t95 40t95 -40t40 -96t-39.5 -95.5t-95.5 -39.5t-95.5 39.5t-39.5 95.5z" />
    <glyph glyph-name="semicolon" unicode=";" horiz-adv-x="532" 
d="M8 -283l205 537l186 -90l-258 -506zM131 956q0 56 40 96t95 40t95 -40t40 -96t-39.5 -95.5t-95.5 -39.5t-95.5 39.5t-39.5 95.5z" />
    <glyph glyph-name="less" unicode="&#x3c;" horiz-adv-x="1228" 
d="M96 449v139l1037 465v-152l-852 -383l852 -383v-151z" />
    <glyph glyph-name="equal" unicode="=" horiz-adv-x="1228" 
d="M96 651v152h1037v-152h-1037zM96 233v152h1037v-152h-1037z" />
    <glyph glyph-name="greater" unicode="&#x3e;" horiz-adv-x="1228" 
d="M948 518l-852 383v152l1037 -465v-139l-1037 -465v151z" />
    <glyph glyph-name="question" unicode="?" horiz-adv-x="1064" 
d="M539 375h-185q0 208 40 311.5t155 194.5l110 86q54 42 76.5 83.5t22.5 104.5q0 96 -62 162.5t-157 66.5q-115 0 -173.5 -72.5t-58.5 -183.5h-196q12 194 126 311t306 117q184 0 297.5 -120t113.5 -289q0 -93 -33 -162.5t-124 -140.5l-121 -94q-45 -36 -67 -59
t-40.5 -64.5t-24 -98.5t-5.5 -153zM311 119q0 55 39.5 95t95.5 40t96 -40t40 -95t-40 -95t-96 -40t-95.5 40t-39.5 95z" />
    <glyph glyph-name="at" unicode="@" horiz-adv-x="1638" 
d="M1049 883q0 78 -54.5 138t-126.5 60q-74 0 -140.5 -40.5t-110.5 -102.5t-69.5 -135t-25.5 -141q0 -93 53 -150t142 -57q68 0 131.5 43t106.5 107.5t68.5 139t25.5 138.5zM1116 1067l39 131h162l-170 -563q-31 -113 -31 -141q0 -52 43 -52q79 0 154.5 66.5t122.5 173.5
t47 219q0 168 -85 295.5t-226.5 192.5t-315.5 65q-148 0 -277 -54t-218.5 -145.5t-141 -217t-51.5 -265.5q0 -141 54.5 -265.5t148 -213t224 -140t277.5 -51.5q155 0 300 66t239 180h152q-109 -173 -295.5 -273t-399.5 -100q-176 0 -334 63t-271.5 170.5t-180 257
t-66.5 316.5q0 164 67 312.5t180.5 255t268.5 169t324 62.5q153 0 293 -49t244.5 -135t166.5 -210.5t62 -266.5q0 -111 -36 -212t-94 -173t-129 -125.5t-141.5 -80t-131.5 -26.5q-59 0 -98.5 33t-45.5 98h-6q-50 -56 -120.5 -93.5t-143.5 -37.5q-140 0 -233 99t-93 241
q0 109 37.5 214.5t103 189t163.5 135t210 51.5q179 0 252 -166z" />
    <glyph glyph-name="A" unicode="A" horiz-adv-x="1515" 
d="M1262 0l-142 362h-725l-141 -362h-215l633 1556h172l633 -1556h-215zM1053 535l-295 763l-295 -763h590z" />
    <glyph glyph-name="B" unicode="B" horiz-adv-x="1290" 
d="M156 0v1556h405q118 0 200 -20.5t150 -69.5q168 -123 168 -340q0 -106 -51.5 -184.5t-142.5 -122.5v-4q141 -21 222 -125.5t81 -249.5q0 -189 -135.5 -314.5t-333.5 -125.5h-563zM352 172h299q95 0 163.5 21t106 59.5t54 84t16.5 101.5q0 39 -9.5 75.5t-34.5 72.5t-62 62
t-97.5 42.5t-136.5 16.5h-299v-535zM352 879h246q123 0 204 66t81 177q0 119 -78 191q-77 71 -246 71h-207v-505z" />
    <glyph glyph-name="C" unicode="C" horiz-adv-x="1517" 
d="M1462 1382l-133 -145q-178 160 -401 160q-121 0 -233.5 -47t-197.5 -128t-135.5 -197t-50.5 -247q0 -132 52 -248.5t137.5 -196.5t197.5 -126.5t230 -46.5q238 0 415 166l125 -142q-105 -96 -249.5 -152.5t-290.5 -56.5q-153 0 -288 46.5t-231.5 125.5t-167 182t-105 218
t-34.5 231t34.5 231t105 218t167 182t231.5 125.5t288 46.5q151 0 294 -55t240 -144z" />
    <glyph glyph-name="D" unicode="D" horiz-adv-x="1517" 
d="M156 0v1556h512q142 0 277.5 -58.5t239 -159.5t167 -246t63.5 -308t-63 -309t-169.5 -250t-254 -164.5t-310.5 -60.5h-462zM352 184h264q171 0 306.5 81t209.5 220t74 310q0 163 -80 295.5t-219 207t-307 74.5h-248v-1188z" />
    <glyph glyph-name="E" unicode="E" horiz-adv-x="1062" 
d="M156 0v1556h805v-184h-609v-493h609v-185h-609v-510h609v-184h-805z" />
    <glyph glyph-name="F" unicode="F" horiz-adv-x="1062" 
d="M156 0v1556h805v-184h-609v-493h609v-185h-609v-694h-196z" />
    <glyph glyph-name="G" unicode="G" horiz-adv-x="1855" 
d="M977 674v184h784q0 -164 -43.5 -306t-120 -246.5t-180 -180t-225 -113t-252.5 -37.5q-153 0 -287.5 46.5t-231.5 125.5t-167 182t-104.5 218t-34.5 231t34.5 231t104.5 218t167 182t231.5 125.5t287.5 46.5q303 0 549 -211l-125 -147q-91 85 -204 129.5t-220 44.5
q-162 0 -303 -79t-227 -222.5t-86 -317.5q0 -132 52 -248.5t137 -196.5t197 -126.5t230 -46.5q142 0 267 59.5t216 177.5t123 277h-569z" />
    <glyph glyph-name="H" unicode="H" horiz-adv-x="1517" 
d="M1165 889v667h197v-1556h-197v705h-813v-705h-196v1556h196v-667h813z" />
    <glyph glyph-name="I" unicode="I" 
d="M147 0v1556h197v-1556h-197z" />
    <glyph glyph-name="J" unicode="J" horiz-adv-x="948" 
d="M106 1372v184h687v-1050q0 -256 -160.5 -393.5t-433.5 -137.5q-47 0 -115 5v180h68q236 0 340 86t104 303v823h-490z" />
    <glyph glyph-name="K" unicode="K" horiz-adv-x="1290" 
d="M352 844l635 712h252l-698 -759l714 -797h-282l-621 711v-711h-196v1556h196v-712z" />
    <glyph glyph-name="L" unicode="L" horiz-adv-x="948" 
d="M156 0v1556h196v-1372h547v-184h-743z" />
    <glyph glyph-name="M" unicode="M" horiz-adv-x="1970" 
d="M985 381l633 1175h197v-1556h-197v1153h-4l-629 -1169l-629 1169h-4v-1153h-196v1556h196z" />
    <glyph glyph-name="N" unicode="N" horiz-adv-x="1515" 
d="M1171 352v1204h197v-1556h-184l-836 1204h-4v-1204h-197v1556h185l835 -1204h4z" />
    <glyph glyph-name="O" unicode="O" horiz-adv-x="1855" 
d="M102 778q0 116 34.5 231t105 218t167 182t231.5 125.5t288 46.5t287.5 -46.5t231.5 -125.5t167 -182t104.5 -218t34.5 -231t-34.5 -231t-104.5 -218t-167 -182t-231.5 -125.5t-287.5 -46.5t-288 46.5t-231.5 125.5t-167 182t-105 218t-34.5 231zM311 778
q0 -134 52 -251.5t137.5 -196.5t197 -124.5t230.5 -45.5t230 45.5t197 124.5t137.5 196.5t51.5 251.5t-51.5 251.5t-137.5 197t-197 125t-230 45.5q-159 0 -299.5 -76.5t-229 -220.5t-88.5 -322z" />
    <glyph glyph-name="P" unicode="P" horiz-adv-x="1175" 
d="M156 0v1556h430q120 0 221 -43.5t166.5 -116t102 -164.5t36.5 -190t-36.5 -189.5t-102 -163.5t-166.5 -115.5t-221 -43.5h-234v-530h-196zM352 702h193q179 0 274.5 86.5t95.5 253.5t-96 254.5t-274 87.5h-193v-682z" />
    <glyph glyph-name="Q" unicode="Q" horiz-adv-x="1855" 
d="M1585 -39l-166 166q-213 -152 -491 -152q-153 0 -288 46.5t-231.5 125.5t-167 182t-105 218t-34.5 231t34.5 231t105 218t167 182t231.5 125.5t288 46.5t287.5 -46.5t231.5 -125.5t167 -182t104.5 -218t34.5 -231q0 -141 -52 -279t-149 -251l160 -160zM1245 553l164 -162
q135 167 135 387q0 134 -51.5 251.5t-137.5 197t-197 125t-230 45.5q-159 0 -299.5 -76.5t-229 -220.5t-88.5 -322q0 -134 52 -251.5t137.5 -196.5t197 -124.5t230.5 -45.5q194 0 348 108l-158 158z" />
    <glyph glyph-name="R" unicode="R" horiz-adv-x="1290" 
d="M983 0l-631 664v-664h-196v1556h448q230 0 376 -126t146 -345q0 -135 -66 -240t-172 -161t-235 -63l607 -621h-277zM352 1384v-600q27 -2 172 -2q213 0 309.5 81.5t96.5 219.5q0 137 -88.5 219t-241.5 82h-248z" />
    <glyph glyph-name="S" unicode="S" horiz-adv-x="1175" 
d="M1069 1112h-184q-20 140 -98 218.5t-201 78.5q-79 0 -136.5 -24t-87.5 -63t-43.5 -80t-13.5 -85q0 -87 55 -146t172 -102l197 -73q363 -135 363 -426q0 -190 -138.5 -312.5t-361.5 -122.5q-219 0 -354.5 117t-153.5 344h197q27 -289 321 -289q126 0 209.5 71t83.5 175
q0 160 -242 254l-198 78q-175 68 -260.5 172t-85.5 254q0 130 67 229.5t175 150t237 50.5q201 0 332.5 -120.5t148.5 -348.5z" />
    <glyph glyph-name="T" unicode="T" horiz-adv-x="1060" 
d="M432 0v1372h-389v184h975v-184h-389v-1372h-197z" />
    <glyph glyph-name="U" unicode="U" horiz-adv-x="1515" 
d="M147 565v991h197v-933q0 -96 27 -179.5t77.5 -147t130.5 -100t179 -36.5q132 0 227 63.5t140.5 166.5t45.5 233v933h197v-991q0 -125 -45.5 -234t-126 -187.5t-195 -123.5t-247.5 -45q-130 0 -243 45t-193 123.5t-125.5 188t-45.5 233.5z" />
    <glyph glyph-name="V" unicode="V" horiz-adv-x="1400" 
d="M702 313l447 1243h209l-576 -1556h-164l-575 1556h209l446 -1243h4z" />
    <glyph glyph-name="W" unicode="W" horiz-adv-x="2084" 
d="M1493 371l348 1185h209l-479 -1556h-152l-375 1233h-4l-374 -1233h-152l-479 1556h209l348 -1181h4l354 1181h185l354 -1185h4z" />
    <glyph glyph-name="X" unicode="X" horiz-adv-x="1400" 
d="M700 954l398 602h239l-516 -763l539 -793h-244l-416 629l-415 -629h-244l539 793l-517 763h240z" />
    <glyph glyph-name="Y" unicode="Y" horiz-adv-x="1290" 
d="M645 827l395 729h230l-527 -935v-621h-196v621l-527 935h230z" />
    <glyph glyph-name="Z" unicode="Z" horiz-adv-x="1290" 
d="M51 0l852 1372h-776v184h1112l-852 -1372h811v-184h-1147z" />
    <glyph glyph-name="bracketleft" unicode="[" horiz-adv-x="720" 
d="M238 -377v1933h403v-151h-219v-1630h219v-152h-403z" />
    <glyph glyph-name="backslash" unicode="\" horiz-adv-x="948" 
d="M745 -25l-704 1606h162l704 -1606h-162z" />
    <glyph glyph-name="bracketright" unicode="]" horiz-adv-x="720" 
d="M299 -225v1630h-219v151h403v-1933h-403v152h219z" />
    <glyph glyph-name="asciicircum" unicode="^" horiz-adv-x="1228" 
d="M958 635l-344 706l-344 -706h-161l436 868h139l436 -868h-162z" />
    <glyph glyph-name="underscore" unicode="_" horiz-adv-x="1024" 
d="M0 -256v102h1024v-102h-1024z" />
    <glyph glyph-name="grave" unicode="`" 
d="M217 1233l-268 254v16h248l165 -270h-145z" />
    <glyph glyph-name="a" unicode="a" horiz-adv-x="1175" 
d="M858 604v111q0 51 -20 90t-51 62t-74.5 37.5t-85 20t-88.5 5.5q-144 0 -295 -74l-80 154q195 82 385 82q78 0 149.5 -13t134.5 -42t109 -70.5t73 -102.5t27 -135v-729h-172v115q-70 -73 -152 -106.5t-188 -33.5q-200 0 -332 104.5t-132 278.5q0 154 124 260.5t338 106.5
q195 0 330 -121zM864 350q0 89 -72.5 151t-228.5 62t-228.5 -62t-72.5 -151t72.5 -151t228.5 -62t228.5 62t72.5 151z" />
    <glyph glyph-name="b" unicode="b" horiz-adv-x="1400" 
d="M1106 543q0 54 -16.5 107.5t-49.5 102t-79 86t-109.5 59.5t-136.5 22q-152 0 -264.5 -114t-112.5 -274t112.5 -272.5t270.5 -112.5q99 0 186 46.5t143 139t56 210.5zM154 0v1556h184v-657h4q64 93 174 143t232 50q149 0 276.5 -72t203 -198.5t75.5 -276.5
q0 -163 -79 -295t-207.5 -203.5t-277.5 -71.5q-133 0 -234.5 51t-162.5 138h-4v-164h-184z" />
    <glyph glyph-name="c" unicode="c" horiz-adv-x="1062" 
d="M1014 958l-125 -145q-110 107 -248 107q-69 0 -132 -25.5t-112.5 -73.5t-78.5 -125t-29 -172q0 -163 105 -270t265 -107q122 0 238 109l109 -135q-70 -72 -166.5 -109t-202.5 -37q-120 0 -223 45.5t-173 121.5t-109.5 177t-39.5 211q0 151 72 280t198.5 205.5t276.5 76.5
q113 0 212 -39t163 -95z" />
    <glyph glyph-name="d" unicode="d" horiz-adv-x="1400" 
d="M1063 532q0 160 -112.5 274t-264.5 114q-73 0 -136.5 -22t-109.5 -59.5t-79 -86t-49.5 -102t-16.5 -107.5q0 -118 56 -210.5t143 -139t186 -46.5q158 0 270.5 112.5t112.5 272.5zM1063 899v657h184v-1556h-184v164h-4q-61 -87 -162.5 -138t-234.5 -51q-149 0 -277.5 71.5
t-207.5 203.5t-79 295q0 150 75.5 276.5t203 198.5t276.5 72q122 0 232 -50t174 -143h4z" />
    <glyph glyph-name="e" unicode="e" horiz-adv-x="1290" 
d="M1014 319l141 -112q-107 -120 -224 -176t-257 -56q-111 0 -206 31t-163 84.5t-117 124.5t-72.5 152.5t-23.5 167.5q0 113 39.5 214.5t110 177.5t175 120.5t226.5 44.5q248 0 403.5 -173.5t155.5 -455.5h-913q22 -139 126 -227.5t257 -88.5q196 0 342 172zM289 614h704
q-14 133 -112 219.5t-240 86.5q-81 0 -147 -27t-107.5 -72t-66 -97.5t-31.5 -109.5z" />
    <glyph glyph-name="f" unicode="f" horiz-adv-x="606" 
d="M201 1067v162q0 161 99.5 246.5t266.5 93.5v-185h-37q-68 0 -106.5 -48.5t-38.5 -121.5v-147h174v-162h-174v-905h-184v905h-162v162h162z" />
    <glyph glyph-name="g" unicode="g" horiz-adv-x="1400" 
d="M1049 899v168h184v-920q0 -298 -147.5 -448t-454.5 -150q-292 0 -498 230l148 117q148 -185 354 -185q210 0 312 99t102 282v76h-5q-79 -95 -170.5 -137.5t-240.5 -42.5q-128 0 -235.5 51.5t-174 133.5t-103 178.5t-36.5 191.5q0 151 75.5 278t203 199t276.5 72
q122 0 231.5 -50t173.5 -143h5zM1049 532q0 160 -112.5 274t-264.5 114q-73 0 -136.5 -22t-109.5 -59.5t-79 -86t-49.5 -102t-16.5 -107.5q0 -118 56.5 -209.5t143.5 -137.5t185 -46q159 0 271 111.5t112 270.5z" />
    <glyph glyph-name="h" unicode="h" horiz-adv-x="1175" 
d="M850 0v621q0 85 -23 149.5t-80.5 107t-144.5 42.5q-130 0 -203 -84t-73 -236v-600h-185v1556h185v-614h4q40 70 120.5 110t172.5 40q81 0 152 -23t130.5 -69t94 -126t34.5 -184v-690h-184z" />
    <glyph glyph-name="i" unicode="i" 
d="M154 0v1067h184v-1067h-184zM117 1405q0 54 37.5 91.5t91.5 37.5t91.5 -37.5t37.5 -91.5t-37.5 -91.5t-91.5 -37.5t-91.5 37.5t-37.5 91.5z" />
    <glyph glyph-name="j" unicode="j" 
d="M154 -96v1163h184v-1145q0 -176 -84 -268.5t-234 -104.5v172q65 0 99.5 48.5t34.5 134.5zM117 1405q0 54 37.5 91.5t91.5 37.5t91.5 -37.5t37.5 -91.5t-37.5 -91.5t-91.5 -37.5t-91.5 37.5t-37.5 91.5z" />
    <glyph glyph-name="k" unicode="k" horiz-adv-x="1062" 
d="M338 602l450 465h242l-493 -494l503 -573h-258l-444 518v-518h-184v1556h184v-954z" />
    <glyph glyph-name="l" unicode="l" 
d="M129 1556h184v-1222q0 -84 34.5 -123t84.5 -39h55v-172h-75q-133 0 -208 78.5t-75 240.5v1237z" />
    <glyph glyph-name="m" unicode="m" horiz-adv-x="1855" 
d="M1522 0v653q0 131 -66 199t-168 68q-119 0 -193.5 -72.5t-74.5 -202.5v-645h-184v653q0 131 -66 199t-168 68q-119 0 -193.5 -72.5t-74.5 -202.5v-645h-184v1067h184v-127h4q34 76 117.5 114t177.5 38q45 0 83.5 -7.5t81 -26t80.5 -57t70 -94.5q47 95 140 140t208 45
q117 0 208 -45t146.5 -141t55.5 -232v-674h-184z" />
    <glyph glyph-name="n" unicode="n" horiz-adv-x="1175" 
d="M850 0v621q0 85 -23 149.5t-80.5 107t-144.5 42.5q-130 0 -203 -84t-73 -236v-600h-185v1067h185v-125h4q40 70 120.5 110t172.5 40q81 0 152 -23t130.5 -69t94 -126t34.5 -184v-690h-184z" />
    <glyph glyph-name="o" unicode="o" horiz-adv-x="1400" 
d="M123 532q0 112 43.5 214.5t118.5 178.5t183.5 121.5t231.5 45.5t231.5 -45.5t184 -121.5t119 -178.5t43.5 -214.5q0 -114 -42 -215.5t-116 -177.5t-183 -120t-237 -44t-236.5 44t-183 120t-116 177.5t-41.5 215.5zM700 920q-156 0 -268.5 -112t-112.5 -276
q0 -154 114 -269.5t267 -115.5t267 115.5t114 269.5q0 164 -112.5 276t-268.5 112z" />
    <glyph glyph-name="p" unicode="p" horiz-adv-x="1400" 
d="M1106 543q0 54 -16.5 107.5t-49.5 102t-79 86t-109.5 59.5t-136.5 22q-152 0 -264.5 -114t-112.5 -274t112.5 -272.5t270.5 -112.5q99 0 186 46.5t143 139t56 210.5zM154 -451v1518h184v-168h4q64 93 174 143t232 50q149 0 276.5 -72t203 -198.5t75.5 -276.5
q0 -163 -79 -295t-207.5 -203.5t-277.5 -71.5q-133 0 -234.5 51t-162.5 138h-4v-615h-184z" />
    <glyph glyph-name="q" unicode="q" horiz-adv-x="1400" 
d="M1063 532q0 160 -112.5 274t-264.5 114q-73 0 -136.5 -22t-109.5 -59.5t-79 -86t-49.5 -102t-16.5 -107.5q0 -118 56 -210.5t143 -139t186 -46.5q158 0 270.5 112.5t112.5 272.5zM1063 899v168h184v-1518h-184v615h-4q-61 -87 -162.5 -138t-234.5 -51q-149 0 -277.5 71.5
t-207.5 203.5t-79 295q0 150 75.5 276.5t203 198.5t276.5 72q122 0 232 -50t174 -143h4z" />
    <glyph glyph-name="r" unicode="r" horiz-adv-x="720" 
d="M154 0v1067h184v-152h4q34 61 68 97.5t78 53.5t83 21.5t107 4.5v-195q-45 10 -84 10q-118 0 -187 -78.5t-69 -222.5v-606h-184z" />
    <glyph glyph-name="s" unicode="s" horiz-adv-x="948" 
d="M80 311h172q9 -83 70.5 -128.5t150.5 -45.5q59 0 102.5 15t66 39t32.5 49t10 51q0 54 -41.5 88t-146.5 63l-187 52q-217 59 -217 274q0 138 101 231t280 93q98 0 171.5 -29t114.5 -77.5t61 -105.5t20 -120h-172q-11 91 -59 135.5t-140 44.5q-86 0 -139.5 -44.5
t-53.5 -109.5q0 -94 119 -129l250 -71q121 -35 172 -103t51 -176q0 -104 -56.5 -181.5t-143 -114t-187.5 -36.5q-185 0 -290.5 91t-110.5 245z" />
    <glyph glyph-name="t" unicode="t" horiz-adv-x="606" 
d="M186 1067v258h185v-258h170v-162h-170v-655q0 -44 18.5 -61t71.5 -17h84v-170q-27 -2 -113 -2q-139 0 -192.5 52t-53.5 177v676h-147v162h147z" />
    <glyph glyph-name="u" unicode="u" horiz-adv-x="1175" 
d="M850 0v125h-4q-40 -70 -120.5 -110t-172.5 -40q-64 0 -122.5 14t-112 45t-92.5 76.5t-62 114t-23 152.5v690h185v-621q0 -63 13.5 -115t41.5 -94t77 -66t115 -24q130 0 203.5 84.5t73.5 235.5v600h184v-1067h-184z" />
    <glyph glyph-name="v" unicode="v" horiz-adv-x="1175" 
d="M588 246l338 821h209l-461 -1067h-172l-461 1067h209z" />
    <glyph glyph-name="w" unicode="w" horiz-adv-x="1744" 
d="M1241 295l268 772h197l-393 -1067h-152l-287 834h-4l-286 -834h-152l-393 1067h197l268 -772h4l266 772h197l266 -772h4z" />
    <glyph glyph-name="x" unicode="x" horiz-adv-x="1175" 
d="M588 682l301 385h233l-413 -522l430 -545h-246l-305 397l-318 -397h-233l430 545l-414 522h246z" />
    <glyph glyph-name="y" unicode="y" horiz-adv-x="1175" 
d="M262 -451l199 467l-445 1051h209l342 -823l346 823h197l-655 -1518h-193z" />
    <glyph glyph-name="z" unicode="z" horiz-adv-x="948" 
d="M43 0l557 905h-500v162h805l-553 -905h527v-162h-836z" />
    <glyph glyph-name="braceleft" unicode="{" horiz-adv-x="720" 
d="M133 526v127q53 0 92 39.5t57.5 99t18.5 128.5v372q0 120 63.5 192t147.5 72h137v-126h-69q-52 0 -73.5 -50t-21.5 -149v-348q0 -117 -46 -190t-122 -101v-4q76 -28 122 -101t46 -190v-348q0 -99 21.5 -149t73.5 -50h69v-127h-137q-84 0 -147.5 72t-63.5 192v373
q0 69 -18.5 128t-57.5 98.5t-92 39.5z" />
    <glyph glyph-name="bar" unicode="|" horiz-adv-x="454" 
d="M152 -512v2048h151v-2048h-151z" />
    <glyph glyph-name="braceright" unicode="}" horiz-adv-x="720" 
d="M72 -377v127h69q52 0 73.5 50t21.5 149v348q0 117 45.5 190t121.5 101v4q-76 28 -121.5 101t-45.5 190v348q0 99 -21.5 149t-73.5 50h-69v126h137q84 0 147.5 -72t63.5 -192v-372q0 -69 18.5 -128.5t57.5 -99t92 -39.5v-127q-53 0 -92 -39.5t-57.5 -98.5t-18.5 -128v-373
q0 -120 -63.5 -192t-147.5 -72h-137z" />
    <glyph glyph-name="asciitilde" unicode="~" horiz-adv-x="1228" 
d="M215 369l-74 114q46 87 108 131.5t148 44.5q92 0 238 -71q54 -26 78.5 -37t61 -23t59.5 -12q90 0 180 152l73 -115q-46 -87 -108 -131.5t-148 -44.5q-89 0 -237 72q-150 71 -199 71q-90 0 -180 -151z" />
    <glyph glyph-name="uni00A0" unicode="&#xa0;" horiz-adv-x="532" 
 />
    <glyph glyph-name="exclamdown" unicode="&#xa1;" horiz-adv-x="720" 
d="M225 987q0 55 39.5 95t95.5 40t96 -40t40 -95t-40 -95t-96 -40t-95.5 40t-39.5 95zM262 -451v1182h197v-1182h-197z" />
    <glyph glyph-name="cent" unicode="&#xa2;" horiz-adv-x="1064" 
d="M514 195l178 723q-8 2 -30 2q-69 0 -132 -25.5t-112.5 -73.5t-79 -125t-29.5 -172q0 -111 55 -198.5t150 -130.5zM412 -219l57 235q-162 58 -259 200.5t-97 313.5q0 113 42.5 216.5t115 179.5t174 121t214.5 45q34 0 74 -7l49 197h107l-53 -219q116 -34 198 -105
l-125 -145q-57 57 -116 78l-181 -727q27 -8 68 -8q123 0 238 108l108 -135q-70 -72 -166.5 -108.5t-202.5 -36.5q-47 0 -88 8l-51 -211h-106z" />
    <glyph glyph-name="sterling" unicode="&#xa3;" horiz-adv-x="1064" 
d="M117 721v102h162q-68 79 -97.5 149t-29.5 150q0 175 121 286.5t296 111.5q355 0 416 -375h-197q-13 93 -67 153t-148 60q-42 0 -79.5 -11.5t-71.5 -36.5t-54 -71.5t-20 -108.5q0 -59 36.5 -130.5t115.5 -176.5h358v-102h-293q70 -101 70 -205q0 -57 -34 -119.5
t-91 -113.5q52 0 101 -18t81.5 -39.5t78 -39.5t91.5 -18q70 0 156 74v-203q-86 -55 -180 -55q-49 0 -108.5 21.5t-106.5 47t-102.5 47t-96.5 21.5q-113 0 -137 -121h-172q2 93 68 181.5t179 111.5q6 1 27 31t41.5 77.5t20.5 85.5q0 124 -95 234h-239z" />
    <glyph glyph-name="currency" unicode="&#xa4;" horiz-adv-x="1064" 
d="M831 1141l113 108l88 -90l-108 -110q102 -130 102 -297q0 -166 -102 -299l108 -109l-88 -90l-113 108q-126 -104 -299 -104t-299 104l-112 -108l-88 90l108 109q-102 133 -102 299q0 167 102 297l-108 110l88 90l112 -108q126 104 299 104t299 -104zM874 752
q0 142 -100 242t-242 100t-242 -100t-100 -242t100 -242t242 -100t242 100t100 242z" />
    <glyph glyph-name="yen" unicode="&#xa5;" horiz-adv-x="1064" 
d="M446 0v369h-360v114h360v138l-34 75h-326v115h274l-317 692h197l292 -680l293 680h197l-317 -692h274v-115h-326l-35 -75v-138h361v-114h-361v-369h-172z" />
    <glyph glyph-name="brokenbar" unicode="&#xa6;" horiz-adv-x="454" 
d="M152 -358v716h151v-716h-151zM152 666v716h151v-716h-151z" />
    <glyph glyph-name="section" unicode="&#xa7;" horiz-adv-x="1064" 
d="M117 -12h184q3 -109 73 -165t161 -56q95 0 154 51.5t59 140.5q0 71 -40.5 117.5t-148.5 81.5l-153 51q-300 101 -300 373q0 222 205 340q-90 42 -140 117t-50 175q0 163 119 265t297 102q176 0 286 -101.5t119 -295.5h-184q0 109 -61.5 172t-178.5 63q-86 0 -149.5 -54
t-63.5 -126q0 -92 43 -141t139 -78l203 -62q268 -80 268 -364q0 -117 -56.5 -202.5t-160.5 -133.5q203 -86 203 -295q0 -157 -118.5 -257.5t-284.5 -100.5q-93 0 -167.5 24.5t-121.5 63.5t-78 90.5t-44 102t-13 102.5zM762 590q0 60 -20 106t-53.5 72.5t-73.5 39.5t-83 13
q-59 0 -109 -22t-85 -76t-35 -133q0 -114 68.5 -172t163.5 -58q92 0 159.5 58t67.5 172z" />
    <glyph glyph-name="dieresis" unicode="&#xa8;" 
d="M307 1362q0 54 37.5 91.5t91.5 37.5t91.5 -37.5t37.5 -91.5t-37.5 -91.5t-91.5 -37.5t-91.5 37.5t-37.5 91.5zM-74 1362q0 54 37.5 91.5t91.5 37.5t91.5 -37.5t37.5 -91.5t-37.5 -91.5t-91.5 -37.5t-91.5 37.5t-37.5 91.5z" />
    <glyph glyph-name="copyright" unicode="&#xa9;" horiz-adv-x="1638" 
d="M1098 629h145q-30 -157 -138 -248.5t-257 -91.5q-213 0 -344 140t-131 353q0 216 127 352t342 136q157 0 267.5 -86.5t133.5 -243.5h-145q-19 89 -88 146t-166 57q-146 0 -227.5 -101.5t-81.5 -257.5q0 -149 87 -258.5t226 -109.5q99 0 168.5 61t81.5 152zM16 778
q0 217 108 402t293 293t402 108t402 -108t293 -293t108 -402t-108 -402t-293 -293t-402 -108t-402 108t-293 293t-108 402zM1483 778q0 181 -89 333.5t-241.5 241.5t-333.5 89q-180 0 -333 -89t-241.5 -241.5t-88.5 -333.5q0 -135 52.5 -258t141 -211.5t211.5 -141
t258 -52.5q181 0 333.5 88.5t241.5 241.5t89 333z" />
    <glyph glyph-name="ordfeminine" unicode="&#xaa;" horiz-adv-x="763" 
d="M532 1233v43q0 38 -18.5 64.5t-50 40t-63.5 19t-68 5.5q-89 0 -187 -43l-51 108q127 50 250 50q90 0 162 -22t119 -72t47 -123v-445h-119v70q-87 -84 -221 -84q-131 0 -216 63t-85 174q0 97 79 160.5t216 63.5q120 0 206 -72zM535 1071q0 46 -46 82.5t-139 36.5
q-90 0 -135 -36.5t-45 -82.5t45 -79.5t137 -33.5t137.5 34t45.5 79z" />
    <glyph glyph-name="guillemotleft" unicode="&#xab;" horiz-adv-x="1064" 
d="M553 565l219 393h172l-229 -393l229 -393h-172zM139 565l219 393h172l-229 -393l229 -393h-172z" />
    <glyph glyph-name="logicalnot" unicode="&#xac;" horiz-adv-x="1228" 
d="M981 221v430h-885v152h1037v-582h-152z" />
    <glyph glyph-name="uni00AD" unicode="&#xad;" horiz-adv-x="606" 
d="M61 473v184h484v-184h-484z" />
    <glyph glyph-name="registered" unicode="&#xae;" horiz-adv-x="1638" 
d="M16 778q0 217 108 402t293 293t402 108t402 -108t293 -293t108 -402t-108 -402t-293 -293t-402 -108t-402 108t-293 293t-108 402zM1483 778q0 181 -89 333.5t-241.5 241.5t-333.5 89q-180 0 -333 -89t-241.5 -241.5t-88.5 -333.5q0 -135 52.5 -258t141 -211.5
t211.5 -141t258 -52.5q181 0 333.5 88.5t241.5 241.5t89 333zM1040 315l-241 404h-148v-404h-139v926h350q165 0 245.5 -64t80.5 -200q0 -222 -238 -254l264 -408h-174zM651 834h189q108 0 158.5 34.5t50.5 110.5q0 77 -50.5 112t-158.5 35h-189v-292z" />
    <glyph glyph-name="macron" unicode="&#xaf;" 
d="M-63 1284v139h618v-139h-618z" />
    <glyph glyph-name="degree" unicode="&#xb0;" horiz-adv-x="819" 
d="M117 1227q0 121 85.5 207t207.5 86q121 0 206.5 -85.5t85.5 -207.5t-85.5 -207.5t-206.5 -85.5q-122 0 -207.5 86t-85.5 207zM219 1227q0 -78 56.5 -134.5t134.5 -56.5t134 56.5t56 134.5t-56 134t-134 56t-134.5 -56t-56.5 -134z" />
    <glyph glyph-name="plusminus" unicode="&#xb1;" horiz-adv-x="1228" 
d="M539 707v329h151v-329h443v-152h-443v-330h-151v330h-443v152h443zM96 0v152h1037v-152h-1037z" />
    <glyph glyph-name="twosuperior" unicode="&#xb2;" horiz-adv-x="690" 
d="M211 1251h-152q3 124 80.5 196.5t202.5 72.5q112 0 191 -60.5t79 -165.5q0 -44 -19 -91t-69 -120l-225 -335h299v-140h-563l338 486q47 67 67.5 110.5t20.5 83.5q0 36 -34 64t-75 28q-57 0 -96 -30.5t-45 -98.5z" />
    <glyph glyph-name="threesuperior" unicode="&#xb3;" horiz-adv-x="690" 
d="M98 1044l277 361h-316v115h553l-266 -338q120 0 203.5 -75.5t83.5 -203.5q0 -126 -95 -210.5t-225 -84.5q-105 0 -172.5 32.5t-128.5 125.5l103 76q59 -107 188 -107q71 0 131 45t60 113q0 80 -57 133t-146 53q-46 0 -92.5 -16.5t-77.5 -42.5z" />
    <glyph glyph-name="acute" unicode="&#xb4;" 
d="M129 1233l166 270h248v-16l-269 -254h-145z" />
    <glyph glyph-name="mu" unicode="&#xb5;" horiz-adv-x="1175" 
d="M850 0v125h-4q-40 -70 -120.5 -110t-172.5 -40q-165 0 -223 99h-4v-525h-185v1518h185v-621q0 -63 13.5 -115t41.5 -94t77 -66t115 -24q130 0 203.5 84.5t73.5 235.5v600h184v-1067h-184z" />
    <glyph glyph-name="paragraph" unicode="&#xb6;" horiz-adv-x="1228" 
d="M872 -371v1801h-243v-1801h-152v1162q-193 0 -314.5 107t-121.5 269q0 196 125 292.5t348 96.5h510v-1927h-152z" />
    <glyph glyph-name="periodcentered" unicode="&#xb7;" horiz-adv-x="532" 
d="M131 662q0 56 39.5 95.5t95.5 39.5t95.5 -39.5t39.5 -95.5t-40 -96t-95 -40t-95 40t-40 96z" />
    <glyph glyph-name="cedilla" unicode="&#xb8;" 
d="M59 -401l-53 98q103 25 167.5 84t102.5 166l179 -64q-55 -134 -150 -199.5t-246 -84.5z" />
    <glyph glyph-name="onesuperior" unicode="&#xb9;" horiz-adv-x="540" 
d="M49 1217v139l328 164v-912h-152v711z" />
    <glyph glyph-name="ordmasculine" unicode="&#xba;" horiz-adv-x="909" 
d="M70 1180q0 140 109 240t276 100t276 -100t109 -240q0 -141 -106.5 -238.5t-278.5 -97.5t-278.5 97.5t-106.5 238.5zM221 1178q0 -91 67 -155.5t167 -64.5t166.5 64.5t66.5 155.5q0 92 -68.5 153.5t-164.5 61.5q-95 0 -164.5 -62t-69.5 -153z" />
    <glyph glyph-name="guillemotright" unicode="&#xbb;" horiz-adv-x="1064" 
d="M764 565l-229 393h172l219 -393l-219 -393h-172zM350 565l-229 393h172l219 -393l-219 -393h-172z" />
    <glyph glyph-name="onequarter" unicode="&#xbc;" horiz-adv-x="1593" 
d="M1233 330v297h-4l-215 -297h219zM1233 0v215h-391v57l493 639h37v-581h98v-115h-98v-215h-139zM233 -16l857 1536h161l-856 -1536h-162zM80 1217v139l328 164v-912h-152v711z" />
    <glyph glyph-name="onehalf" unicode="&#xbd;" horiz-adv-x="1593" 
d="M180 -16l856 1536h162l-856 -1536h-162zM1069 643h-151q3 124 80 196t202 72q112 0 191 -60t79 -165q0 -44 -19 -91t-69 -120l-225 -336h299v-139h-563l338 485q46 67 67 111t21 84q0 36 -34 64t-75 28q-57 0 -96 -30.5t-45 -98.5zM49 1217v139l328 164v-912h-152v711z
" />
    <glyph glyph-name="threequarters" unicode="&#xbe;" horiz-adv-x="1593" 
d="M1233 330v297h-4l-215 -297h219zM1233 0v215h-391v57l493 639h37v-581h98v-115h-98v-215h-139zM305 -16l856 1536h162l-856 -1536h-162zM135 1044l277 361h-316v115h553l-266 -338q120 0 203.5 -75.5t83.5 -203.5q0 -126 -95 -210.5t-225 -84.5q-105 0 -172.5 32.5
t-128.5 125.5l103 76q59 -107 188 -107q71 0 130.5 45t59.5 113q0 80 -56.5 133t-145.5 53q-46 0 -92.5 -16.5t-77.5 -42.5z" />
    <glyph glyph-name="questiondown" unicode="&#xbf;" horiz-adv-x="1064" 
d="M526 731h185q0 -208 -40 -311.5t-155 -194.5l-110 -86q-54 -42 -76.5 -83.5t-22.5 -104.5q0 -96 62 -163t157 -67q115 0 173.5 72.5t58.5 183.5h196q-12 -194 -126 -311t-306 -117q-184 0 -297.5 120.5t-113.5 289.5q0 93 33 162.5t124 140.5l121 94q45 36 67 59
t40.5 64.5t24 98.5t5.5 153zM483 987q0 55 39.5 95t95.5 40t96 -40t40 -95t-40 -95t-96 -40t-95.5 40t-39.5 95z" />
    <glyph glyph-name="Agrave" unicode="&#xc0;" horiz-adv-x="1515" 
d="M1262 0l-142 362h-725l-141 -362h-215l633 1556h172l633 -1556h-215zM1053 535l-295 763l-295 -763h590zM729 1632l-268 254v17h248l165 -271h-145z" />
    <glyph glyph-name="Aacute" unicode="&#xc1;" horiz-adv-x="1515" 
d="M1262 0l-142 362h-725l-141 -362h-215l633 1556h172l633 -1556h-215zM1053 535l-295 763l-295 -763h590zM641 1632l166 271h248v-17l-269 -254h-145z" />
    <glyph glyph-name="Acircumflex" unicode="&#xc2;" horiz-adv-x="1515" 
d="M1262 0l-142 362h-725l-141 -362h-215l633 1556h172l633 -1556h-215zM1053 535l-295 763l-295 -763h590zM913 1632l-155 156l-156 -156h-151l196 271h221l197 -271h-152z" />
    <glyph glyph-name="Atilde" unicode="&#xc3;" horiz-adv-x="1515" 
d="M1262 0l-142 362h-725l-141 -362h-215l633 1556h172l633 -1556h-215zM1053 535l-295 763l-295 -763h590zM528 1651h-84q3 102 44 164.5t124 62.5q49 0 109.5 -23t110 -46t71.5 -23q26 0 52.5 22.5t31.5 65.5h84q-3 -102 -44 -164.5t-124 -62.5q-49 0 -109.5 23t-110 46
t-71.5 23q-26 0 -52.5 -22.5t-31.5 -65.5z" />
    <glyph glyph-name="Adieresis" unicode="&#xc4;" horiz-adv-x="1515" 
d="M1262 0l-142 362h-725l-141 -362h-215l633 1556h172l633 -1556h-215zM1053 535l-295 763l-295 -763h590zM819 1782q0 54 37.5 91.5t91.5 37.5t91.5 -37.5t37.5 -91.5t-37.5 -91.5t-91.5 -37.5t-91.5 37.5t-37.5 91.5zM438 1782q0 54 37.5 91.5t91.5 37.5t91.5 -37.5
t37.5 -91.5t-37.5 -91.5t-91.5 -37.5t-91.5 37.5t-37.5 91.5z" />
    <glyph glyph-name="Aring" unicode="&#xc5;" horiz-adv-x="1515" 
d="M1262 0l-142 362h-725l-141 -362h-215l633 1556h172l633 -1556h-215zM1053 535l-295 763l-295 -763h590zM567 1786q0 78 56.5 134t134.5 56t134 -56t56 -134t-56 -134.5t-134 -56.5t-134.5 56.5t-56.5 134.5zM653 1786q0 -43 31 -74t74 -31t73.5 31t30.5 74t-30.5 73.5
t-73.5 30.5t-74 -30.5t-31 -73.5z" />
    <glyph glyph-name="AE" unicode="&#xc6;" horiz-adv-x="1972" 
d="M1079 0v362h-612l-207 -362h-221l913 1556h918v-184h-594v-493h594v-185h-594v-510h594v-184h-791zM1079 535v882h-4l-510 -882h514z" />
    <glyph glyph-name="Ccedilla" unicode="&#xc7;" horiz-adv-x="1517" 
d="M1462 1382l-133 -145q-178 160 -401 160q-121 0 -233.5 -47t-197.5 -128t-135.5 -197t-50.5 -247q0 -132 52 -248.5t137.5 -196.5t197.5 -126.5t230 -46.5q238 0 415 166l125 -142q-105 -96 -249.5 -152.5t-290.5 -56.5q-153 0 -288 46.5t-231.5 125.5t-167 182t-105 218
t-34.5 231t34.5 231t105 218t167 182t231.5 125.5t288 46.5q151 0 294 -55t240 -144zM680 -401l-53 98q103 25 167.5 84t102.5 166l178 -64q-55 -134 -149.5 -199.5t-245.5 -84.5z" />
    <glyph glyph-name="Egrave" unicode="&#xc8;" horiz-adv-x="1062" 
d="M156 0v1556h805v-184h-609v-493h609v-185h-609v-510h609v-184h-805zM541 1632l-269 254v17h248l166 -271h-145z" />
    <glyph glyph-name="Eacute" unicode="&#xc9;" horiz-adv-x="1062" 
d="M156 0v1556h805v-184h-609v-493h609v-185h-609v-510h609v-184h-805zM453 1632l165 271h248v-17l-268 -254h-145z" />
    <glyph glyph-name="Ecircumflex" unicode="&#xca;" horiz-adv-x="1062" 
d="M156 0v1556h805v-184h-609v-493h609v-185h-609v-510h609v-184h-805zM725 1632l-156 156l-155 -156h-152l197 271h221l197 -271h-152z" />
    <glyph glyph-name="Edieresis" unicode="&#xcb;" horiz-adv-x="1062" 
d="M156 0v1556h805v-184h-609v-493h609v-185h-609v-510h609v-184h-805zM631 1782q0 54 37.5 91.5t91.5 37.5t91.5 -37.5t37.5 -91.5t-37.5 -91.5t-91.5 -37.5t-91.5 37.5t-37.5 91.5zM250 1782q0 54 37.5 91.5t91.5 37.5t91.5 -37.5t37.5 -91.5t-37.5 -91.5t-91.5 -37.5
t-91.5 37.5t-37.5 91.5z" />
    <glyph glyph-name="Igrave" unicode="&#xcc;" 
d="M147 0v1556h197v-1556h-197zM217 1632l-268 254v17h248l165 -271h-145z" />
    <glyph glyph-name="Iacute" unicode="&#xcd;" 
d="M147 0v1556h197v-1556h-197zM129 1632l166 271h248v-17l-269 -254h-145z" />
    <glyph glyph-name="Icircumflex" unicode="&#xce;" 
d="M147 0v1556h197v-1556h-197zM401 1632l-155 156l-156 -156h-151l196 271h221l197 -271h-152z" />
    <glyph glyph-name="Idieresis" unicode="&#xcf;" 
d="M147 0v1556h197v-1556h-197zM307 1782q0 54 37.5 91.5t91.5 37.5t91.5 -37.5t37.5 -91.5t-37.5 -91.5t-91.5 -37.5t-91.5 37.5t-37.5 91.5zM-74 1782q0 54 37.5 91.5t91.5 37.5t91.5 -37.5t37.5 -91.5t-37.5 -91.5t-91.5 -37.5t-91.5 37.5t-37.5 91.5z" />
    <glyph glyph-name="Eth" unicode="&#xd0;" horiz-adv-x="1517" 
d="M156 879v677h512q142 0 277.5 -58.5t239 -159.5t167 -246t63.5 -308t-63 -309t-169.5 -250t-254 -164.5t-310.5 -60.5h-462v707h-115v172h115zM352 184h264q171 0 306.5 81t209.5 220t74 310q0 163 -80 295.5t-219 207t-307 74.5h-248v-493h353v-172h-353v-523z" />
    <glyph glyph-name="Ntilde" unicode="&#xd1;" horiz-adv-x="1515" 
d="M1171 352v1204h197v-1556h-184l-836 1204h-4v-1204h-197v1556h185l835 -1204h4zM528 1651h-84q3 102 44 164.5t124 62.5q49 0 109.5 -23t110 -46t71.5 -23q26 0 52.5 22.5t31.5 65.5h84q-3 -102 -44 -164.5t-124 -62.5q-49 0 -109.5 23t-110 46t-71.5 23
q-26 0 -52.5 -22.5t-31.5 -65.5z" />
    <glyph glyph-name="Ograve" unicode="&#xd2;" horiz-adv-x="1855" 
d="M102 778q0 116 34.5 231t105 218t167 182t231.5 125.5t288 46.5t287.5 -46.5t231.5 -125.5t167 -182t104.5 -218t34.5 -231t-34.5 -231t-104.5 -218t-167 -182t-231.5 -125.5t-287.5 -46.5t-288 46.5t-231.5 125.5t-167 182t-105 218t-34.5 231zM311 778
q0 -134 52 -251.5t137.5 -196.5t197 -124.5t230.5 -45.5t230 45.5t197 124.5t137.5 196.5t51.5 251.5t-51.5 251.5t-137.5 197t-197 125t-230 45.5q-159 0 -299.5 -76.5t-229 -220.5t-88.5 -322zM899 1632l-268 254v17h248l165 -271h-145z" />
    <glyph glyph-name="Oacute" unicode="&#xd3;" horiz-adv-x="1855" 
d="M102 778q0 116 34.5 231t105 218t167 182t231.5 125.5t288 46.5t287.5 -46.5t231.5 -125.5t167 -182t104.5 -218t34.5 -231t-34.5 -231t-104.5 -218t-167 -182t-231.5 -125.5t-287.5 -46.5t-288 46.5t-231.5 125.5t-167 182t-105 218t-34.5 231zM311 778
q0 -134 52 -251.5t137.5 -196.5t197 -124.5t230.5 -45.5t230 45.5t197 124.5t137.5 196.5t51.5 251.5t-51.5 251.5t-137.5 197t-197 125t-230 45.5q-159 0 -299.5 -76.5t-229 -220.5t-88.5 -322zM811 1632l166 271h248v-17l-269 -254h-145z" />
    <glyph glyph-name="Ocircumflex" unicode="&#xd4;" horiz-adv-x="1855" 
d="M102 778q0 116 34.5 231t105 218t167 182t231.5 125.5t288 46.5t287.5 -46.5t231.5 -125.5t167 -182t104.5 -218t34.5 -231t-34.5 -231t-104.5 -218t-167 -182t-231.5 -125.5t-287.5 -46.5t-288 46.5t-231.5 125.5t-167 182t-105 218t-34.5 231zM311 778
q0 -134 52 -251.5t137.5 -196.5t197 -124.5t230.5 -45.5t230 45.5t197 124.5t137.5 196.5t51.5 251.5t-51.5 251.5t-137.5 197t-197 125t-230 45.5q-159 0 -299.5 -76.5t-229 -220.5t-88.5 -322zM1083 1632l-155 156l-156 -156h-151l196 271h221l197 -271h-152z" />
    <glyph glyph-name="Otilde" unicode="&#xd5;" horiz-adv-x="1855" 
d="M102 778q0 116 34.5 231t105 218t167 182t231.5 125.5t288 46.5t287.5 -46.5t231.5 -125.5t167 -182t104.5 -218t34.5 -231t-34.5 -231t-104.5 -218t-167 -182t-231.5 -125.5t-287.5 -46.5t-288 46.5t-231.5 125.5t-167 182t-105 218t-34.5 231zM311 778
q0 -134 52 -251.5t137.5 -196.5t197 -124.5t230.5 -45.5t230 45.5t197 124.5t137.5 196.5t51.5 251.5t-51.5 251.5t-137.5 197t-197 125t-230 45.5q-159 0 -299.5 -76.5t-229 -220.5t-88.5 -322zM698 1651h-84q3 102 44 164.5t124 62.5q49 0 109.5 -23t110 -46t71.5 -23
q26 0 52.5 22.5t31.5 65.5h84q-3 -102 -44 -164.5t-124 -62.5q-49 0 -109.5 23t-110 46t-71.5 23q-26 0 -52.5 -22.5t-31.5 -65.5z" />
    <glyph glyph-name="Odieresis" unicode="&#xd6;" horiz-adv-x="1855" 
d="M102 778q0 116 34.5 231t105 218t167 182t231.5 125.5t288 46.5t287.5 -46.5t231.5 -125.5t167 -182t104.5 -218t34.5 -231t-34.5 -231t-104.5 -218t-167 -182t-231.5 -125.5t-287.5 -46.5t-288 46.5t-231.5 125.5t-167 182t-105 218t-34.5 231zM311 778
q0 -134 52 -251.5t137.5 -196.5t197 -124.5t230.5 -45.5t230 45.5t197 124.5t137.5 196.5t51.5 251.5t-51.5 251.5t-137.5 197t-197 125t-230 45.5q-159 0 -299.5 -76.5t-229 -220.5t-88.5 -322zM989 1782q0 54 37.5 91.5t91.5 37.5t91.5 -37.5t37.5 -91.5t-37.5 -91.5
t-91.5 -37.5t-91.5 37.5t-37.5 91.5zM608 1782q0 54 37.5 91.5t91.5 37.5t91.5 -37.5t37.5 -91.5t-37.5 -91.5t-91.5 -37.5t-91.5 37.5t-37.5 91.5z" />
    <glyph glyph-name="multiply" unicode="&#xd7;" horiz-adv-x="1228" 
d="M614 623l365 364l104 -104l-364 -365l364 -364l-104 -105l-365 365l-364 -365l-105 105l365 364l-365 365l105 104z" />
    <glyph glyph-name="Oslash" unicode="&#xd8;" horiz-adv-x="1855" 
d="M465 367l840 903q-169 127 -377 127q-159 0 -299.5 -76.5t-229 -220.5t-88.5 -322q0 -232 154 -411zM1391 1190l-840 -903q173 -127 377 -127q119 0 230 45.5t197 124.5t137.5 196.5t51.5 251.5q0 239 -153 412zM141 18l189 203q-109 113 -168.5 259.5t-59.5 297.5
q0 116 34.5 231t105 218t167 182t231.5 125.5t288 46.5q298 0 510 -168l190 205l86 -80l-188 -203q111 -114 169 -259.5t58 -297.5q0 -116 -34.5 -231t-104.5 -218t-167 -182t-231.5 -125.5t-287.5 -46.5q-298 0 -512 166l-189 -202z" />
    <glyph glyph-name="Ugrave" unicode="&#xd9;" horiz-adv-x="1515" 
d="M147 565v991h197v-933q0 -96 27 -179.5t77.5 -147t130.5 -100t179 -36.5q132 0 227 63.5t140.5 166.5t45.5 233v933h197v-991q0 -125 -45.5 -234t-126 -187.5t-195 -123.5t-247.5 -45q-130 0 -243 45t-193 123.5t-125.5 188t-45.5 233.5zM729 1632l-268 254v17h248
l165 -271h-145z" />
    <glyph glyph-name="Uacute" unicode="&#xda;" horiz-adv-x="1515" 
d="M147 565v991h197v-933q0 -96 27 -179.5t77.5 -147t130.5 -100t179 -36.5q132 0 227 63.5t140.5 166.5t45.5 233v933h197v-991q0 -125 -45.5 -234t-126 -187.5t-195 -123.5t-247.5 -45q-130 0 -243 45t-193 123.5t-125.5 188t-45.5 233.5zM641 1632l166 271h248v-17
l-269 -254h-145z" />
    <glyph glyph-name="Ucircumflex" unicode="&#xdb;" horiz-adv-x="1515" 
d="M147 565v991h197v-933q0 -96 27 -179.5t77.5 -147t130.5 -100t179 -36.5q132 0 227 63.5t140.5 166.5t45.5 233v933h197v-991q0 -125 -45.5 -234t-126 -187.5t-195 -123.5t-247.5 -45q-130 0 -243 45t-193 123.5t-125.5 188t-45.5 233.5zM913 1632l-155 156l-156 -156
h-151l196 271h221l197 -271h-152z" />
    <glyph glyph-name="Udieresis" unicode="&#xdc;" horiz-adv-x="1515" 
d="M147 565v991h197v-933q0 -96 27 -179.5t77.5 -147t130.5 -100t179 -36.5q132 0 227 63.5t140.5 166.5t45.5 233v933h197v-991q0 -125 -45.5 -234t-126 -187.5t-195 -123.5t-247.5 -45q-130 0 -243 45t-193 123.5t-125.5 188t-45.5 233.5zM819 1782q0 54 37.5 91.5
t91.5 37.5t91.5 -37.5t37.5 -91.5t-37.5 -91.5t-91.5 -37.5t-91.5 37.5t-37.5 91.5zM438 1782q0 54 37.5 91.5t91.5 37.5t91.5 -37.5t37.5 -91.5t-37.5 -91.5t-91.5 -37.5t-91.5 37.5t-37.5 91.5z" />
    <glyph glyph-name="Yacute" unicode="&#xdd;" horiz-adv-x="1290" 
d="M645 827l395 729h230l-527 -935v-621h-196v621l-527 935h230zM528 1632l166 271h248v-17l-268 -254h-146z" />
    <glyph glyph-name="Thorn" unicode="&#xde;" horiz-adv-x="1175" 
d="M156 0v1556h196v-227h234q120 0 221 -43.5t166.5 -116t102 -164.5t36.5 -190t-36.5 -189.5t-102 -163.5t-166.5 -115.5t-221 -43.5h-234v-303h-196zM352 475h193q179 0 274.5 86.5t95.5 253.5t-96 254.5t-274 87.5h-193v-682z" />
    <glyph glyph-name="germandbls" unicode="&#xdf;" horiz-adv-x="1290" 
d="M502 20l45 166q63 -36 158 -36q118 0 207 87t89 232q0 146 -102.5 235t-261.5 89h-45v161h49q86 0 142.5 62t56.5 162q0 102 -62 160.5t-166 58.5q-107 0 -167 -68.5t-60 -214.5v-1114h-184v905h-148v162h148v92q0 177 111.5 293.5t310.5 116.5q78 0 145 -24t113 -63
t79 -88.5t48.5 -100t15.5 -97.5q0 -99 -42 -173.5t-120 -115.5v-4q150 -20 243 -135t93 -276q0 -223 -139.5 -363.5t-362.5 -140.5q-107 0 -194 32z" />
    <glyph glyph-name="agrave" unicode="&#xe0;" horiz-adv-x="1175" 
d="M858 604v111q0 51 -20 90t-51 62t-74.5 37.5t-85 20t-88.5 5.5q-144 0 -295 -74l-80 154q195 82 385 82q78 0 149.5 -13t134.5 -42t109 -70.5t73 -102.5t27 -135v-729h-172v115q-70 -73 -152 -106.5t-188 -33.5q-200 0 -332 104.5t-132 278.5q0 154 124 260.5t338 106.5
q195 0 330 -121zM864 350q0 89 -72.5 151t-228.5 62t-228.5 -62t-72.5 -151t72.5 -151t228.5 -62t228.5 62t72.5 151zM571 1233l-268 254v16h248l166 -270h-146z" />
    <glyph glyph-name="aacute" unicode="&#xe1;" horiz-adv-x="1175" 
d="M858 604v111q0 51 -20 90t-51 62t-74.5 37.5t-85 20t-88.5 5.5q-144 0 -295 -74l-80 154q195 82 385 82q78 0 149.5 -13t134.5 -42t109 -70.5t73 -102.5t27 -135v-729h-172v115q-70 -73 -152 -106.5t-188 -33.5q-200 0 -332 104.5t-132 278.5q0 154 124 260.5t338 106.5
q195 0 330 -121zM864 350q0 89 -72.5 151t-228.5 62t-228.5 -62t-72.5 -151t72.5 -151t228.5 -62t228.5 62t72.5 151zM483 1233l166 270h248v-16l-268 -254h-146z" />
    <glyph glyph-name="acircumflex" unicode="&#xe2;" horiz-adv-x="1175" 
d="M858 604v111q0 51 -20 90t-51 62t-74.5 37.5t-85 20t-88.5 5.5q-144 0 -295 -74l-80 154q195 82 385 82q78 0 149.5 -13t134.5 -42t109 -70.5t73 -102.5t27 -135v-729h-172v115q-70 -73 -152 -106.5t-188 -33.5q-200 0 -332 104.5t-132 278.5q0 154 124 260.5t338 106.5
q195 0 330 -121zM864 350q0 89 -72.5 151t-228.5 62t-228.5 -62t-72.5 -151t72.5 -151t228.5 -62t228.5 62t72.5 151zM756 1233l-156 156l-156 -156h-151l196 270h222l196 -270h-151z" />
    <glyph glyph-name="atilde" unicode="&#xe3;" horiz-adv-x="1175" 
d="M858 604v111q0 51 -20 90t-51 62t-74.5 37.5t-85 20t-88.5 5.5q-144 0 -295 -74l-80 154q195 82 385 82q78 0 149.5 -13t134.5 -42t109 -70.5t73 -102.5t27 -135v-729h-172v115q-70 -73 -152 -106.5t-188 -33.5q-200 0 -332 104.5t-132 278.5q0 154 124 260.5t338 106.5
q195 0 330 -121zM864 350q0 89 -72.5 151t-228.5 62t-228.5 -62t-72.5 -151t72.5 -151t228.5 -62t228.5 62t72.5 151zM371 1251h-84q3 102 44 165t124 63q49 0 109 -23.5t109.5 -46.5t71.5 -23q26 0 52.5 23t31.5 66h84q-3 -102 -44 -165t-124 -63q-49 0 -109 23t-109.5 46
t-71.5 23q-26 0 -52.5 -22.5t-31.5 -65.5z" />
    <glyph glyph-name="adieresis" unicode="&#xe4;" horiz-adv-x="1175" 
d="M858 604v111q0 51 -20 90t-51 62t-74.5 37.5t-85 20t-88.5 5.5q-144 0 -295 -74l-80 154q195 82 385 82q78 0 149.5 -13t134.5 -42t109 -70.5t73 -102.5t27 -135v-729h-172v115q-70 -73 -152 -106.5t-188 -33.5q-200 0 -332 104.5t-132 278.5q0 154 124 260.5t338 106.5
q195 0 330 -121zM864 350q0 89 -72.5 151t-228.5 62t-228.5 -62t-72.5 -151t72.5 -151t228.5 -62t228.5 62t72.5 151zM662 1362q0 54 37.5 91.5t91.5 37.5t91.5 -37.5t37.5 -91.5t-37.5 -91.5t-91.5 -37.5t-91.5 37.5t-37.5 91.5zM281 1362q0 54 37.5 91.5t91.5 37.5
t91.5 -37.5t37.5 -91.5t-37.5 -91.5t-91.5 -37.5t-91.5 37.5t-37.5 91.5z" />
    <glyph glyph-name="aring" unicode="&#xe5;" horiz-adv-x="1175" 
d="M858 604v111q0 51 -20 90t-51 62t-74.5 37.5t-85 20t-88.5 5.5q-144 0 -295 -74l-80 154q195 82 385 82q78 0 149.5 -13t134.5 -42t109 -70.5t73 -102.5t27 -135v-729h-172v115q-70 -73 -152 -106.5t-188 -33.5q-200 0 -332 104.5t-132 278.5q0 154 124 260.5t338 106.5
q195 0 330 -121zM864 350q0 89 -72.5 151t-228.5 62t-228.5 -62t-72.5 -151t72.5 -151t228.5 -62t228.5 62t72.5 151zM410 1378q0 78 56 134.5t134 56.5t134.5 -56.5t56.5 -134.5t-56.5 -134t-134.5 -56t-134 56t-56 134zM496 1378q0 -43 30.5 -73.5t73.5 -30.5t74 30.5
t31 73.5t-31 74t-74 31t-73.5 -31t-30.5 -74z" />
    <glyph glyph-name="ae" unicode="&#xe6;" horiz-adv-x="1972" 
d="M870 350q0 89 -72.5 151t-228.5 62t-228.5 -62t-72.5 -151t72.5 -151t228.5 -62t228.5 62t72.5 151zM864 604v111q0 51 -20 90t-51 62t-74.5 37.5t-85 20t-88.5 5.5q-144 0 -295 -74l-80 154q195 82 385 82q177 0 281 -53.5t165 -157.5q50 91 156.5 151t220.5 60
q157 0 278 -80t183 -208t62 -278v-63h-846q6 -136 106.5 -226t247.5 -90q112 0 182.5 36.5t132.5 111.5l138 -111q-99 -108 -208.5 -158.5t-250.5 -50.5q-138 0 -252 57.5t-166 147.5q-79 -110 -189 -157.5t-259 -47.5q-200 0 -332.5 104.5t-132.5 278.5q0 154 124.5 260.5
t338.5 106.5q194 0 329 -121zM1055 614h649q-12 138 -105 222t-219 84q-77 0 -143.5 -30.5t-117 -101.5t-64.5 -174z" />
    <glyph glyph-name="ccedilla" unicode="&#xe7;" horiz-adv-x="1062" 
d="M1014 958l-125 -145q-110 107 -248 107q-69 0 -132 -25.5t-112.5 -73.5t-78.5 -125t-29 -172q0 -163 105 -270t265 -107q122 0 238 109l109 -135q-70 -72 -166.5 -109t-202.5 -37q-120 0 -223 45.5t-173 121.5t-109.5 177t-39.5 211q0 151 72 280t198.5 205.5t276.5 76.5
q113 0 212 -39t163 -95zM416 -401l-54 98q103 25 168 84t103 166l178 -64q-55 -134 -149.5 -199.5t-245.5 -84.5z" />
    <glyph glyph-name="egrave" unicode="&#xe8;" horiz-adv-x="1290" 
d="M1014 319l141 -112q-107 -120 -224 -176t-257 -56q-111 0 -206 31t-163 84.5t-117 124.5t-72.5 152.5t-23.5 167.5q0 113 39.5 214.5t110 177.5t175 120.5t226.5 44.5q248 0 403.5 -173.5t155.5 -455.5h-913q22 -139 126 -227.5t257 -88.5q196 0 342 172zM289 614h704
q-14 133 -112 219.5t-240 86.5q-81 0 -147 -27t-107.5 -72t-66 -97.5t-31.5 -109.5zM629 1233l-269 254v16h248l166 -270h-145z" />
    <glyph glyph-name="eacute" unicode="&#xe9;" horiz-adv-x="1290" 
d="M1014 319l141 -112q-107 -120 -224 -176t-257 -56q-111 0 -206 31t-163 84.5t-117 124.5t-72.5 152.5t-23.5 167.5q0 113 39.5 214.5t110 177.5t175 120.5t226.5 44.5q248 0 403.5 -173.5t155.5 -455.5h-913q22 -139 126 -227.5t257 -88.5q196 0 342 172zM289 614h704
q-14 133 -112 219.5t-240 86.5q-81 0 -147 -27t-107.5 -72t-66 -97.5t-31.5 -109.5zM541 1233l166 270h247v-16l-268 -254h-145z" />
    <glyph glyph-name="ecircumflex" unicode="&#xea;" horiz-adv-x="1290" 
d="M1014 319l141 -112q-107 -120 -224 -176t-257 -56q-111 0 -206 31t-163 84.5t-117 124.5t-72.5 152.5t-23.5 167.5q0 113 39.5 214.5t110 177.5t175 120.5t226.5 44.5q248 0 403.5 -173.5t155.5 -455.5h-913q22 -139 126 -227.5t257 -88.5q196 0 342 172zM289 614h704
q-14 133 -112 219.5t-240 86.5q-81 0 -147 -27t-107.5 -72t-66 -97.5t-31.5 -109.5zM813 1233l-156 156l-155 -156h-152l197 270h221l197 -270h-152z" />
    <glyph glyph-name="edieresis" unicode="&#xeb;" horiz-adv-x="1290" 
d="M1014 319l141 -112q-107 -120 -224 -176t-257 -56q-111 0 -206 31t-163 84.5t-117 124.5t-72.5 152.5t-23.5 167.5q0 113 39.5 214.5t110 177.5t175 120.5t226.5 44.5q248 0 403.5 -173.5t155.5 -455.5h-913q22 -139 126 -227.5t257 -88.5q196 0 342 172zM289 614h704
q-14 133 -112 219.5t-240 86.5q-81 0 -147 -27t-107.5 -72t-66 -97.5t-31.5 -109.5zM719 1362q0 54 37.5 91.5t91.5 37.5t91.5 -37.5t37.5 -91.5t-37.5 -91.5t-91.5 -37.5t-91.5 37.5t-37.5 91.5zM338 1362q0 54 37.5 91.5t91.5 37.5t91.5 -37.5t37.5 -91.5t-37.5 -91.5
t-91.5 -37.5t-91.5 37.5t-37.5 91.5z" />
    <glyph glyph-name="igrave" unicode="&#xec;" 
d="M154 0v1067h184v-1067h-184zM217 1233l-268 254v16h248l165 -270h-145z" />
    <glyph glyph-name="iacute" unicode="&#xed;" 
d="M154 0v1067h184v-1067h-184zM129 1233l166 270h248v-16l-269 -254h-145z" />
    <glyph glyph-name="icircumflex" unicode="&#xee;" 
d="M154 0v1067h184v-1067h-184zM401 1233l-155 156l-156 -156h-151l196 270h221l197 -270h-152z" />
    <glyph glyph-name="idieresis" unicode="&#xef;" 
d="M154 0v1067h184v-1067h-184zM307 1362q0 54 37.5 91.5t91.5 37.5t91.5 -37.5t37.5 -91.5t-37.5 -91.5t-91.5 -37.5t-91.5 37.5t-37.5 91.5zM-74 1362q0 54 37.5 91.5t91.5 37.5t91.5 -37.5t37.5 -91.5t-37.5 -91.5t-91.5 -37.5t-91.5 37.5t-37.5 91.5z" />
    <glyph glyph-name="eth" unicode="&#xf0;" horiz-adv-x="1400" 
d="M700 920q-156 0 -268.5 -112t-112.5 -276q0 -154 114 -269.5t267 -115.5t267 115.5t114 269.5q0 164 -112.5 276t-268.5 112zM479 1223l-110 84l245 106q-126 62 -252 82l160 115q161 -41 285 -115l266 115l109 -86l-256 -109q175 -141 263.5 -346t88.5 -455
q0 -156 -43.5 -279t-121.5 -201t-182.5 -118.5t-230.5 -40.5q-128 0 -236.5 44t-183 120t-116 177.5t-41.5 215.5q0 112 43.5 214.5t118.5 178.5t183.5 121.5t231.5 45.5q203 0 328 -138l4 4q-57 218 -287 379z" />
    <glyph glyph-name="ntilde" unicode="&#xf1;" horiz-adv-x="1175" 
d="M850 0v621q0 85 -23 149.5t-80.5 107t-144.5 42.5q-130 0 -203 -84t-73 -236v-600h-185v1067h185v-125h4q40 70 120.5 110t172.5 40q81 0 152 -23t130.5 -69t94 -126t34.5 -184v-690h-184zM358 1251h-84q3 102 44 165t124 63q49 0 109.5 -23.5t110 -46.5t71.5 -23
q26 0 52.5 23t31.5 66h84q-3 -102 -44 -165t-124 -63q-49 0 -109.5 23t-110 46t-71.5 23q-26 0 -52.5 -22.5t-31.5 -65.5z" />
    <glyph glyph-name="ograve" unicode="&#xf2;" horiz-adv-x="1400" 
d="M123 532q0 112 43.5 214.5t118.5 178.5t183.5 121.5t231.5 45.5t231.5 -45.5t184 -121.5t119 -178.5t43.5 -214.5q0 -114 -42 -215.5t-116 -177.5t-183 -120t-237 -44t-236.5 44t-183 120t-116 177.5t-41.5 215.5zM700 920q-156 0 -268.5 -112t-112.5 -276
q0 -154 114 -269.5t267 -115.5t267 115.5t114 269.5q0 164 -112.5 276t-268.5 112zM672 1233l-269 254v16h248l166 -270h-145z" />
    <glyph glyph-name="oacute" unicode="&#xf3;" horiz-adv-x="1400" 
d="M123 532q0 112 43.5 214.5t118.5 178.5t183.5 121.5t231.5 45.5t231.5 -45.5t184 -121.5t119 -178.5t43.5 -214.5q0 -114 -42 -215.5t-116 -177.5t-183 -120t-237 -44t-236.5 44t-183 120t-116 177.5t-41.5 215.5zM700 920q-156 0 -268.5 -112t-112.5 -276
q0 -154 114 -269.5t267 -115.5t267 115.5t114 269.5q0 164 -112.5 276t-268.5 112zM584 1233l166 270h247v-16l-268 -254h-145z" />
    <glyph glyph-name="ocircumflex" unicode="&#xf4;" horiz-adv-x="1400" 
d="M123 532q0 112 43.5 214.5t118.5 178.5t183.5 121.5t231.5 45.5t231.5 -45.5t184 -121.5t119 -178.5t43.5 -214.5q0 -114 -42 -215.5t-116 -177.5t-183 -120t-237 -44t-236.5 44t-183 120t-116 177.5t-41.5 215.5zM700 920q-156 0 -268.5 -112t-112.5 -276
q0 -154 114 -269.5t267 -115.5t267 115.5t114 269.5q0 164 -112.5 276t-268.5 112zM856 1233l-156 156l-155 -156h-152l197 270h221l197 -270h-152z" />
    <glyph glyph-name="otilde" unicode="&#xf5;" horiz-adv-x="1400" 
d="M123 532q0 112 43.5 214.5t118.5 178.5t183.5 121.5t231.5 45.5t231.5 -45.5t184 -121.5t119 -178.5t43.5 -214.5q0 -114 -42 -215.5t-116 -177.5t-183 -120t-237 -44t-236.5 44t-183 120t-116 177.5t-41.5 215.5zM700 920q-156 0 -268.5 -112t-112.5 -276
q0 -154 114 -269.5t267 -115.5t267 115.5t114 269.5q0 164 -112.5 276t-268.5 112zM471 1251h-84q3 102 44 165t124 63q49 0 109.5 -23.5t110 -46.5t71.5 -23q26 0 52.5 23t31.5 66h84q-3 -102 -44 -165t-124 -63q-49 0 -109.5 23t-110 46t-71.5 23q-26 0 -52.5 -22.5
t-31.5 -65.5z" />
    <glyph glyph-name="odieresis" unicode="&#xf6;" horiz-adv-x="1400" 
d="M123 532q0 112 43.5 214.5t118.5 178.5t183.5 121.5t231.5 45.5t231.5 -45.5t184 -121.5t119 -178.5t43.5 -214.5q0 -114 -42 -215.5t-116 -177.5t-183 -120t-237 -44t-236.5 44t-183 120t-116 177.5t-41.5 215.5zM700 920q-156 0 -268.5 -112t-112.5 -276
q0 -154 114 -269.5t267 -115.5t267 115.5t114 269.5q0 164 -112.5 276t-268.5 112zM762 1362q0 54 37.5 91.5t91.5 37.5t91.5 -37.5t37.5 -91.5t-37.5 -91.5t-91.5 -37.5t-91.5 37.5t-37.5 91.5zM381 1362q0 54 37.5 91.5t91.5 37.5t91.5 -37.5t37.5 -91.5t-37.5 -91.5
t-91.5 -37.5t-91.5 37.5t-37.5 91.5z" />
    <glyph glyph-name="divide" unicode="&#xf7;" horiz-adv-x="1228" 
d="M96 442v152h1037v-152h-1037zM473 940q0 58 41.5 99.5t99.5 41.5q59 0 100.5 -41.5t41.5 -99.5t-41.5 -99.5t-100.5 -41.5q-58 0 -99.5 41.5t-41.5 99.5zM473 96q0 59 41.5 100.5t99.5 41.5t100 -42t42 -100t-41.5 -99.5t-100.5 -41.5q-58 0 -99.5 41.5t-41.5 99.5z" />
    <glyph glyph-name="oslash" unicode="&#xf8;" horiz-adv-x="1400" 
d="M393 313l547 521q-106 86 -240 86q-156 0 -268.5 -112t-112.5 -276q0 -123 74 -219zM1012 758l-547 -522q102 -89 235 -89q153 0 267 115.5t114 269.5q0 125 -69 226zM106 41l144 135q-127 146 -127 356q0 112 43.5 214.5t118.5 178.5t183.5 121.5t231.5 45.5
q215 0 375 -131l148 141l71 -76l-145 -137q129 -154 129 -357q0 -114 -42 -215.5t-116 -177.5t-183 -120t-237 -44q-220 0 -376 127l-146 -137z" />
    <glyph glyph-name="ugrave" unicode="&#xf9;" horiz-adv-x="1175" 
d="M850 0v125h-4q-40 -70 -120.5 -110t-172.5 -40q-64 0 -122.5 14t-112 45t-92.5 76.5t-62 114t-23 152.5v690h185v-621q0 -63 13.5 -115t41.5 -94t77 -66t115 -24q130 0 203.5 84.5t73.5 235.5v600h184v-1067h-184zM559 1233l-268 254v16h248l166 -270h-146z" />
    <glyph glyph-name="uacute" unicode="&#xfa;" horiz-adv-x="1175" 
d="M850 0v125h-4q-40 -70 -120.5 -110t-172.5 -40q-64 0 -122.5 14t-112 45t-92.5 76.5t-62 114t-23 152.5v690h185v-621q0 -63 13.5 -115t41.5 -94t77 -66t115 -24q130 0 203.5 84.5t73.5 235.5v600h184v-1067h-184zM471 1233l166 270h248v-16l-269 -254h-145z" />
    <glyph glyph-name="ucircumflex" unicode="&#xfb;" horiz-adv-x="1175" 
d="M850 0v125h-4q-40 -70 -120.5 -110t-172.5 -40q-64 0 -122.5 14t-112 45t-92.5 76.5t-62 114t-23 152.5v690h185v-621q0 -63 13.5 -115t41.5 -94t77 -66t115 -24q130 0 203.5 84.5t73.5 235.5v600h184v-1067h-184zM743 1233l-155 156l-156 -156h-151l196 270h221
l197 -270h-152z" />
    <glyph glyph-name="udieresis" unicode="&#xfc;" horiz-adv-x="1175" 
d="M850 0v125h-4q-40 -70 -120.5 -110t-172.5 -40q-64 0 -122.5 14t-112 45t-92.5 76.5t-62 114t-23 152.5v690h185v-621q0 -63 13.5 -115t41.5 -94t77 -66t115 -24q130 0 203.5 84.5t73.5 235.5v600h184v-1067h-184zM649 1362q0 54 37.5 91.5t91.5 37.5t91.5 -37.5
t37.5 -91.5t-37.5 -91.5t-91.5 -37.5t-91.5 37.5t-37.5 91.5zM268 1362q0 54 37.5 91.5t91.5 37.5t91.5 -37.5t37.5 -91.5t-37.5 -91.5t-91.5 -37.5t-91.5 37.5t-37.5 91.5z" />
    <glyph glyph-name="yacute" unicode="&#xfd;" horiz-adv-x="1175" 
d="M262 -451l199 467l-445 1051h209l342 -823l346 823h197l-655 -1518h-193zM471 1233l166 270h248v-16l-269 -254h-145z" />
    <glyph glyph-name="thorn" unicode="&#xfe;" horiz-adv-x="1400" 
d="M1106 543q0 54 -16.5 107.5t-49.5 102t-79 86t-109.5 59.5t-136.5 22q-152 0 -264.5 -114t-112.5 -274t112.5 -272.5t270.5 -112.5q99 0 186 46.5t143 139t56 210.5zM154 -451v2007h184v-657h4q64 93 174 143t232 50q149 0 276.5 -72t203 -198.5t75.5 -276.5
q0 -163 -79 -295t-207.5 -203.5t-277.5 -71.5q-133 0 -234.5 51t-162.5 138h-4v-615h-184z" />
    <glyph glyph-name="ydieresis" unicode="&#xff;" horiz-adv-x="1175" 
d="M262 -451l199 467l-445 1051h209l342 -823l346 823h197l-655 -1518h-193zM649 1362q0 54 37.5 91.5t91.5 37.5t91.5 -37.5t37.5 -91.5t-37.5 -91.5t-91.5 -37.5t-91.5 37.5t-37.5 91.5zM268 1362q0 54 37.5 91.5t91.5 37.5t91.5 -37.5t37.5 -91.5t-37.5 -91.5
t-91.5 -37.5t-91.5 37.5t-37.5 91.5z" />
    <glyph glyph-name="dotlessi" unicode="&#x131;" 
d="M154 0v1067h184v-1067h-184z" />
    <glyph glyph-name="Lslash" unicode="&#x141;" horiz-adv-x="948" 
d="M352 954l254 254v-196l-254 -254v-574h547v-184h-743v561l-142 -141v196l142 142v798h196v-602z" />
    <glyph glyph-name="lslash" unicode="&#x142;" 
d="M313 989l174 174v-151l-174 -174v-504q0 -84 34.5 -123t84.5 -39h55v-172h-75q-133 0 -208 78.5t-75 240.5v334l-121 -121v152l121 121v751h184v-567z" />
    <glyph glyph-name="OE" unicode="&#x152;" horiz-adv-x="2086" 
d="M1235 1350v206h750v-184h-562v-514h562v-184h-562v-490h562v-184h-750v205h-4q-149 -230 -471 -230q-132 0 -244 44.5t-191.5 121t-135.5 179.5t-82.5 219t-26.5 239t26.5 239t82.5 219t135.5 179.5t191.5 121t244 44.5q322 0 471 -229zM1239 778q0 96 -15.5 184
t-51.5 170.5t-90 143t-136.5 97t-185.5 36.5t-186.5 -36.5t-138 -97t-91 -143t-52.5 -170.5t-16 -184t16 -184t52.5 -170.5t91 -143t138 -97t186.5 -36.5t185.5 36.5t136.5 97t90 143t51.5 170.5t15.5 184z" />
    <glyph glyph-name="oe" unicode="&#x153;" horiz-adv-x="2086" 
d="M973 530q0 73 -22 141.5t-63.5 124.5t-109.5 90t-151 34t-151 -34t-109.5 -90t-63.5 -124.5t-22 -141.5q0 -162 94.5 -272.5t251.5 -110.5t251.5 110.5t94.5 272.5zM1145 614h661q-12 138 -104.5 222t-218.5 84q-58 0 -110 -16.5t-98.5 -51.5t-80.5 -96t-49 -142z
M2003 463h-858q12 -136 115.5 -226t250.5 -90q112 0 183 36.5t133 111.5l137 -111q-99 -108 -208.5 -158.5t-250.5 -50.5q-142 0 -254.5 52.5t-195.5 179.5q-66 -114 -178 -173t-250 -59q-124 0 -227.5 44.5t-172 119.5t-106 174.5t-37.5 210.5q0 104 34.5 203t99.5 181.5
t171.5 133t237.5 50.5q278 0 434 -230q83 119 179.5 174.5t240.5 55.5q118 0 217.5 -46.5t165.5 -125t102.5 -180.5t36.5 -214v-63z" />
    <glyph glyph-name="Scaron" unicode="&#x160;" horiz-adv-x="1175" 
d="M1069 1112h-184q-20 140 -98 218.5t-201 78.5q-79 0 -136.5 -24t-87.5 -63t-43.5 -80t-13.5 -85q0 -87 55 -146t172 -102l197 -73q363 -135 363 -426q0 -190 -138.5 -312.5t-361.5 -122.5q-219 0 -354.5 117t-153.5 344h197q27 -289 321 -289q126 0 209.5 71t83.5 175
q0 160 -242 254l-198 78q-175 68 -260.5 172t-85.5 254q0 130 67 229.5t175 150t237 50.5q201 0 332.5 -120.5t148.5 -348.5zM588 1747l155 156h152l-197 -271h-221l-196 271h151z" />
    <glyph glyph-name="scaron" unicode="&#x161;" horiz-adv-x="948" 
d="M80 311h172q9 -83 70.5 -128.5t150.5 -45.5q59 0 102.5 15t66 39t32.5 49t10 51q0 54 -41.5 88t-146.5 63l-187 52q-217 59 -217 274q0 138 101 231t280 93q98 0 171.5 -29t114.5 -77.5t61 -105.5t20 -120h-172q-11 91 -59 135.5t-140 44.5q-86 0 -139.5 -44.5
t-53.5 -109.5q0 -94 119 -129l250 -71q121 -35 172 -103t51 -176q0 -104 -56.5 -181.5t-143 -114t-187.5 -36.5q-185 0 -290.5 91t-110.5 245zM475 1348l156 155h151l-196 -270h-221l-197 270h151z" />
    <glyph glyph-name="Ydieresis" unicode="&#x178;" horiz-adv-x="1290" 
d="M645 827l395 729h230l-527 -935v-621h-196v621l-527 935h230zM707 1782q0 54 37.5 91.5t91.5 37.5t91.5 -37.5t37.5 -91.5t-37.5 -91.5t-91.5 -37.5t-91.5 37.5t-37.5 91.5zM326 1782q0 54 37.5 91.5t91.5 37.5t91.5 -37.5t37.5 -91.5t-37.5 -91.5t-91.5 -37.5
t-91.5 37.5t-37.5 91.5z" />
    <glyph glyph-name="Zcaron" unicode="&#x17d;" horiz-adv-x="1290" 
d="M51 0l852 1372h-776v184h1112l-852 -1372h811v-184h-1147zM645 1747l156 156h151l-196 -271h-221l-197 271h151z" />
    <glyph glyph-name="zcaron" unicode="&#x17e;" horiz-adv-x="948" 
d="M43 0l557 905h-500v162h805l-553 -905h527v-162h-836zM475 1348l156 155h151l-196 -270h-221l-197 270h151z" />
    <glyph glyph-name="florin" unicode="&#x192;" horiz-adv-x="1064" 
d="M225 752l13 102h198l47 381q20 158 94 221.5t228 63.5q27 0 59 -4l-20 -173q-30 5 -49 5q-114 0 -131 -136l-43 -358h200l-14 -102h-199l-110 -932q-15 -130 -80.5 -191t-200.5 -61q-64 0 -108 8l22 176q36 -12 57 -12q64 0 93 32t38 109l105 871h-199z" />
    <glyph glyph-name="circumflex" unicode="&#x2c6;" 
d="M401 1233l-155 156l-156 -156h-151l196 270h221l197 -270h-152z" />
    <glyph glyph-name="caron" unicode="&#x2c7;" 
d="M246 1348l155 155h152l-197 -270h-221l-196 270h151z" />
    <glyph glyph-name="uni02C9" unicode="&#x2c9;" 
d="M-63 1284v139h618v-139h-618z" />
    <glyph glyph-name="breve" unicode="&#x2d8;" 
d="M-68 1503h117q17 -67 72 -100q54 -31 125 -31q163 0 196 131h117q-5 -119 -85 -194.5t-228 -75.5q-149 0 -229 75.5t-85 194.5z" />
    <glyph glyph-name="dotaccent" unicode="&#x2d9;" 
d="M117 1362q0 54 37.5 91.5t91.5 37.5t91.5 -37.5t37.5 -91.5t-37.5 -91.5t-91.5 -37.5t-91.5 37.5t-37.5 91.5z" />
    <glyph glyph-name="ring" unicode="&#x2da;" 
d="M55 1378q0 78 56.5 134.5t134.5 56.5t134 -56.5t56 -134.5t-56 -134t-134 -56t-134.5 56t-56.5 134zM141 1378q0 -43 31 -73.5t74 -30.5t73.5 30.5t30.5 73.5t-30.5 74t-73.5 31t-74 -31t-31 -74z" />
    <glyph glyph-name="ogonek" unicode="&#x2db;" 
d="M139 0h172l-75 -119q-31 -50 -31 -88q0 -19 11 -31t30 -12q24 0 49 21l41 -129q-78 -43 -156 -43q-74 0 -117 39t-43 106q0 91 60 174z" />
    <glyph glyph-name="tilde" unicode="&#x2dc;" 
d="M16 1251h-84q3 102 44 165t124 63q49 0 109.5 -23.5t110 -46.5t71.5 -23q26 0 52.5 23t31.5 66h84q-3 -102 -44 -165t-124 -63q-49 0 -109.5 23t-110 46t-71.5 23q-26 0 -52.5 -22.5t-31.5 -65.5z" />
    <glyph glyph-name="hungarumlaut" unicode="&#x2dd;" 
d="M-68 1233l166 270h248v-16l-268 -254h-146zM313 1233l166 270h248v-16l-268 -254h-146z" />
    <glyph glyph-name="uni03A9" unicode="&#x3a9;" horiz-adv-x="1366" 
d="M371 141v6q-110 114 -182 283.5t-72 372.5q0 204 74 364t204.5 248t294.5 88q126 0 232.5 -57t176.5 -152.5t109 -219.5t39 -259q0 -210 -75 -385.5t-183 -282.5v-6h285v-141h-467v104q114 87 192 263.5t78 410.5q0 84 -15 165.5t-47.5 157t-77.5 132.5t-110 91t-141 34
q-120 0 -212 -77.5t-140.5 -209.5t-48.5 -297q0 -221 80.5 -405t189.5 -265v-104h-465v141h281z" />
    <glyph glyph-name="uni03BC" unicode="&#x3bc;" horiz-adv-x="1175" 
d="M850 0v125h-4q-40 -70 -120.5 -110t-172.5 -40q-165 0 -223 99h-4v-525h-185v1518h185v-621q0 -63 13.5 -115t41.5 -94t77 -66t115 -24q130 0 203.5 84.5t73.5 235.5v600h184v-1067h-184z" />
    <glyph glyph-name="pi" unicode="&#x3c0;" horiz-adv-x="1114" 
d="M1061 954h-152v-651q0 -185 29 -303h-160q-35 65 -35 291v663h-329q-8 -222 -48 -513.5t-92 -440.5h-161q53 169 92 451.5t45 502.5q-146 0 -207 -22l-25 115q85 57 285 57h772z" />
    <glyph glyph-name="uni2010" unicode="&#x2010;" horiz-adv-x="606" 
d="M61 473v184h484v-184h-484z" />
    <glyph glyph-name="endash" unicode="&#x2013;" horiz-adv-x="1024" 
d="M0 485v162h1024v-162h-1024z" />
    <glyph glyph-name="emdash" unicode="&#x2014;" horiz-adv-x="2048" 
d="M0 485v162h2048v-162h-2048z" />
    <glyph glyph-name="quoteleft" unicode="&#x2018;" horiz-adv-x="606" 
d="M113 1057l249 499l132 -63l-191 -514z" />
    <glyph glyph-name="quoteright" unicode="&#x2019;" horiz-adv-x="606" 
d="M113 1042l190 514l191 -77l-250 -500z" />
    <glyph glyph-name="quotesinglbase" unicode="&#x201a;" horiz-adv-x="606" 
d="M76 -279l190 515l191 -78l-250 -500z" />
    <glyph glyph-name="quotedblleft" unicode="&#x201c;" horiz-adv-x="1064" 
d="M555 1057l250 499l131 -63l-191 -514zM129 1057l250 499l131 -63l-191 -514z" />
    <glyph glyph-name="quotedblright" unicode="&#x201d;" horiz-adv-x="1064" 
d="M129 1042l190 514l191 -77l-250 -500zM555 1042l190 514l191 -77l-250 -500z" />
    <glyph glyph-name="quotedblbase" unicode="&#x201e;" horiz-adv-x="1064" 
d="M106 -279l191 515l190 -78l-249 -500zM532 -279l191 515l190 -78l-249 -500z" />
    <glyph glyph-name="dagger" unicode="&#x2020;" horiz-adv-x="1064" 
d="M440 1114v442h185v-442h346v-172h-346v-1175h-185v1175h-346v172h346z" />
    <glyph glyph-name="daggerdbl" unicode="&#x2021;" horiz-adv-x="1064" 
d="M440 344v635h-346v172h346v405h185v-405h346v-172h-346v-635h346v-172h-346v-405h-185v405h-346v172h346z" />
    <glyph glyph-name="bullet" unicode="&#x2022;" horiz-adv-x="1024" 
d="M123 778q0 161 114 275t275 114t275 -114t114 -275t-114 -275t-275 -114t-275 114t-114 275z" />
    <glyph glyph-name="ellipsis" unicode="&#x2026;" horiz-adv-x="2048" 
d="M207 119q0 55 39.5 95t95.5 40t95.5 -40t39.5 -95t-39.5 -95t-95.5 -40t-95.5 40t-39.5 95zM889 119q0 55 39.5 95t95.5 40t95.5 -40t39.5 -95t-39.5 -95t-95.5 -40t-95.5 40t-39.5 95zM1571 119q0 55 39.5 95t95.5 40t95.5 -40t39.5 -95t-39.5 -95t-95.5 -40t-95.5 40
t-39.5 95z" />
    <glyph glyph-name="perthousand" unicode="&#x2030;" horiz-adv-x="2048" 
d="M166 1223v-109q0 -78 32 -122t95 -44q64 0 96.5 43.5t32.5 122.5v109q0 79 -32.5 123.5t-96.5 44.5q-63 0 -95 -44.5t-32 -123.5zM158 -16l856 1536h162l-857 -1536h-161zM911 387v-108q0 -78 32 -122t95 -44q64 0 96.5 43.5t32.5 122.5v108q0 79 -32.5 123.5t-96.5 44.5
q-63 0 -95 -44.5t-32 -123.5zM14 1090v157q0 125 77.5 199t201.5 74q126 0 203 -74t77 -199v-157q0 -125 -77 -198t-203 -73q-125 0 -202 73.5t-77 197.5zM760 254v158q0 125 77 198.5t201 73.5q126 0 203.5 -73.5t77.5 -198.5v-158q0 -124 -77.5 -197t-203.5 -73
q-125 0 -201.5 73t-76.5 197zM1475 254v158q0 125 77 198.5t201 73.5q126 0 203.5 -73.5t77.5 -198.5v-158q0 -124 -77.5 -197t-203.5 -73q-125 0 -201.5 73t-76.5 197zM1626 387v-108q0 -78 32 -122t95 -44q64 0 96.5 43.5t32.5 122.5v108q0 79 -32.5 123.5t-96.5 44.5
q-63 0 -95 -44.5t-32 -123.5z" />
    <glyph glyph-name="guilsinglleft" unicode="&#x2039;" horiz-adv-x="606" 
d="M113 565l219 393h172l-230 -393l230 -393h-172z" />
    <glyph glyph-name="guilsinglright" unicode="&#x203a;" horiz-adv-x="606" 
d="M332 565l-230 393h172l220 -393l-220 -393h-172z" />
    <glyph glyph-name="fraction" unicode="&#x2044;" horiz-adv-x="342" 
d="M-338 -16l856 1536h162l-856 -1536h-162z" />
    <glyph glyph-name="Euro" unicode="&#x20ac;" horiz-adv-x="1064" 
d="M979 1436v-172q-98 94 -277 94q-150 0 -232.5 -104t-98.5 -285h528l-45 -138h-500q0 -11 -1 -37.5t-1 -39.5q0 -14 1 -41.5t1 -36.5h451l-45 -137h-389q20 -197 104.5 -297.5t229.5 -100.5q170 0 274 97v-177q-36 -31 -114 -53t-187 -22q-419 0 -481 553h-148l43 137h90
q-2 18 -2 78q0 54 2 77h-133l43 138h101q31 260 150 404.5t337 144.5q99 0 178 -24.5t121 -57.5z" />
    <glyph glyph-name="afii61289" unicode="&#x2113;" horiz-adv-x="950" 
d="M831 319l74 -69q-125 -256 -364 -256q-84 0 -147 30.5t-101 85.5t-57.5 123.5t-22.5 151.5v29q-15 -14 -33 -30l-40.5 -36t-35.5 -31l-49 97q12 10 41 36l43.5 39t35.5 33.5t38 38.5v574q0 110 17.5 197t46 144t69 94.5t83.5 53.5t91 16q120 0 182 -94.5t62 -247.5
q0 -353 -393 -763v-84q1 -164 57.5 -243t146.5 -79q80 0 145.5 55t110.5 135zM371 1137v-435q284 338 284 598q0 211 -131 211q-63 0 -108 -89.5t-45 -284.5z" />
    <glyph glyph-name="trademark" unicode="&#x2122;" horiz-adv-x="2027" 
d="M1360 934l239 622h232v-843h-152v692h-4l-264 -692h-102l-265 692h-4v-692h-151v843h231zM334 713v729h-260v114h671v-114h-260v-729h-151z" />
    <glyph glyph-name="Omega" unicode="&#x2126;" horiz-adv-x="1366" 
d="M371 141v6q-110 114 -182 283.5t-72 372.5q0 204 74 364t204.5 248t294.5 88q126 0 232.5 -57t176.5 -152.5t109 -219.5t39 -259q0 -210 -75 -385.5t-183 -282.5v-6h285v-141h-467v104q114 87 192 263.5t78 410.5q0 84 -15 165.5t-47.5 157t-77.5 132.5t-110 91t-141 34
q-120 0 -212 -77.5t-140.5 -209.5t-48.5 -297q0 -221 80.5 -405t189.5 -265v-104h-465v141h281z" />
    <glyph glyph-name="estimated" unicode="&#x212e;" horiz-adv-x="1851" 
d="M1778 731h-1381q-12 0 -12 -10v-418q0 -29 18 -47q102 -107 237 -167t286 -60q162 0 304.5 67.5t246.5 186.5h122q-118 -137 -295.5 -217t-379.5 -80q-232 0 -428 102.5t-310 278.5t-114 385t114 385.5t310 279.5t428 103q174 0 332.5 -61t272.5 -163.5t181.5 -245
t67.5 -298.5v-21zM1464 784v420q0 31 -20 51q-103 102 -236.5 160t-281.5 58t-282 -60t-238 -166q-21 -18 -21 -51v-412q0 -4 3.5 -9t8.5 -5h1059q8 0 8 14z" />
    <glyph glyph-name="partialdiff" unicode="&#x2202;" horiz-adv-x="1071" 
d="M201 1430l-54 129q136 114 326 114q78 0 149.5 -29t135.5 -92.5t111 -155t74.5 -225t27.5 -294.5q0 -265 -57.5 -462.5t-174 -309t-280.5 -111.5q-91 0 -164 40.5t-118.5 109.5t-69 155t-23.5 182q0 123 34 227.5t91.5 173.5t133 107.5t157.5 38.5q48 0 93 -13
t77.5 -32.5t61 -45t45.5 -47.5t28 -42h2q2 23 2 84q0 258 -102.5 428t-251.5 170q-141 0 -254 -100zM473 137h2q85 0 153.5 77.5t108 198.5t51.5 265q-24 78 -95 144.5t-167 66.5q-116 0 -197 -121.5t-81 -288.5q0 -152 61.5 -247t163.5 -95z" />
    <glyph glyph-name="uni2206" unicode="&#x2206;" horiz-adv-x="1249" 
d="M61 0v113l471 1405h193l463 -1403v-115h-1127zM227 139h785l-264 779q-14 49 -61 191t-60 196h-9q-10 -49 -56 -187t-56 -172z" />
    <glyph glyph-name="product" unicode="&#x220f;" horiz-adv-x="1361" 
d="M1305 1323h-203v-1528h-164v1528h-516v-1528h-166v1528h-203v158h1252v-158z" />
    <glyph glyph-name="summation" unicode="&#x2211;" horiz-adv-x="1073" 
d="M1028 -205h-981v117l512 725l-491 723v121h929v-146h-704v-8l452 -661l-493 -701v-6h776v-164z" />
    <glyph glyph-name="minus" unicode="&#x2212;" horiz-adv-x="1228" 
d="M96 442v152h1037v-152h-1037z" />
    <glyph glyph-name="uni2215" unicode="&#x2215;" horiz-adv-x="342" 
d="M-338 -16l856 1536h162l-856 -1536h-162z" />
    <glyph glyph-name="uni2219" unicode="&#x2219;" horiz-adv-x="532" 
d="M131 662q0 56 39.5 95.5t95.5 39.5t95.5 -39.5t39.5 -95.5t-40 -96t-95 -40t-95 40t-40 96z" />
    <glyph glyph-name="radical" unicode="&#x221a;" horiz-adv-x="1126" 
d="M1124 1765l-432 -2076h-141l-307 975l-146 -56l-30 103l280 110l236 -751q4 -21 12 -57.5t13.5 -63.5t8.5 -45l3 -2q13 88 26 168l357 1695h120z" />
    <glyph glyph-name="infinity" unicode="&#x221e;" horiz-adv-x="1552" 
d="M1452 616v-2q0 -144 -92 -234.5t-217 -90.5q-91 0 -174.5 55t-190.5 180q-37 -43 -64 -71.5t-66 -62.5t-74 -54t-80 -33.5t-93 -13.5q-125 0 -214 91t-89 226q0 139 90.5 230.5t227.5 91.5q104 0 190.5 -61t177.5 -173q6 7 18 20q38 42 58.5 64t59.5 56t70.5 51
t75.5 30.5t91 12.5q130 0 212.5 -87t82.5 -225zM416 393h2q26 0 50.5 5.5t50.5 21t43 26t45 37.5t38 37t40 43t36 39q-38 47 -55 68t-53.5 58.5t-63.5 54.5t-66 31.5t-80 14.5q-91 0 -143.5 -65t-50.5 -160q0 -89 58 -150t149 -61zM1145 829h-2q-37 0 -73.5 -14t-72 -43.5
t-57.5 -50.5t-57 -60.5t-43 -48.5q107 -122 171 -170.5t138 -48.5q88 0 141 65t53 148q0 101 -55.5 162t-142.5 61z" />
    <glyph glyph-name="integral" unicode="&#x222b;" horiz-adv-x="729" 
d="M688 1786l-24 -119q-34 19 -72 19q-60 0 -98 -52q-35 -45 -49.5 -133t-14.5 -241q0 -165 13.5 -524t13.5 -537q0 -291 -84 -430q-32 -56 -88 -84.5t-119 -28.5q-72 0 -131 33l26 125q52 -23 86 -23q59 0 93 49q61 89 61 359q0 179 -13.5 543t-13.5 532q0 179 25 283.5
t84 168.5q74 86 197 86q58 0 108 -26z" />
    <glyph glyph-name="approxequal" unicode="&#x2248;" horiz-adv-x="1093" 
d="M938 905l66 -57q-91 -199 -254 -199q-53 0 -99 18.5t-127 65.5q-39 24 -61.5 36t-55.5 23t-63 11q-32 0 -60 -11.5t-51 -35t-39.5 -46t-37.5 -57.5l-70 56q44 91 114.5 143.5t155.5 52.5q28 0 53.5 -4.5t53 -16.5t40 -17.5t41.5 -23t31 -18.5q5 -3 27 -16t27.5 -16
t23.5 -12t26.5 -11.5t23 -7.5t27 -6.5t26.5 -1.5q57 0 98 36.5t84 114.5zM938 559l66 -57q-92 -197 -254 -197q-54 0 -100.5 18.5t-125.5 63.5q-58 36 -97.5 53t-82.5 17q-61 0 -102.5 -39.5t-85.5 -112.5l-70 57q44 91 115 145t155 54q34 0 69.5 -9.5t55.5 -19.5
t52.5 -28.5t41.5 -22.5q2 -1 23 -13.5t24 -14.5t20.5 -11.5t23 -11t20 -7.5t23.5 -7.5t21.5 -3.5t25.5 -2q57 0 97 35.5t85 113.5z" />
    <glyph glyph-name="notequal" unicode="&#x2260;" horiz-adv-x="1093" 
d="M782 1044l-86 -192h295v-107h-336l-129 -288h465v-107h-506l-102 -229l-84 35l86 194h-285v107h328l127 288h-455v107h496l100 227z" />
    <glyph glyph-name="lessequal" unicode="&#x2264;" horiz-adv-x="1093" 
d="M987 215l-876 457v114l876 455v-129l-766 -379v-4l766 -383v-131zM993 23h-893v110h893v-110z" />
    <glyph glyph-name="greaterequal" unicode="&#x2265;" horiz-adv-x="1093" 
d="M113 1241l876 -457v-112l-876 -457v131l764 381v4l-764 381v129zM991 23h-889v110h889v-110z" />
    <glyph glyph-name="lozenge" unicode="&#x25ca;" horiz-adv-x="1126" 
d="M1020 739l-391 -829h-137l-386 829l394 830h135zM868 735l-264 568q-31 86 -37 118h-6q-13 -55 -39 -118l-264 -560l266 -573q20 -48 35 -115h8q13 64 35 113z" />
    <glyph glyph-name="fi" unicode="&#xfb01;" horiz-adv-x="1062" 
d="M201 1067v162q0 161 99.5 246.5t266.5 93.5v-185h-37q-68 0 -106.5 -48.5t-38.5 -121.5v-147h174v-162h-174v-905h-184v905h-162v162h162zM725 0v1067h184v-1067h-184zM688 1405q0 54 37.5 91.5t91.5 37.5t91.5 -37.5t37.5 -91.5t-37.5 -91.5t-91.5 -37.5t-91.5 37.5
t-37.5 91.5z" />
    <glyph glyph-name="fl" unicode="&#xfb02;" horiz-adv-x="1062" 
d="M195 1067v162q0 161 99 246.5t265 93.5v-185h-35q-68 0 -106.5 -48.5t-38.5 -121.5v-147h180v-162h-174v-905h-184v905h-162v162h156zM725 319v1237h184v-1222q0 -84 34.5 -123t84.5 -39h55v-172h-75q-133 0 -208 78.5t-75 240.5z" />
    <glyph glyph-name="one.superior" horiz-adv-x="540" 
d="M49 1217v139l328 164v-912h-152v711z" />
    <glyph glyph-name="two.superior" horiz-adv-x="690" 
d="M211 1251h-152q3 124 80.5 196.5t202.5 72.5q112 0 191 -60.5t79 -165.5q0 -44 -19 -91t-69 -120l-225 -335h299v-140h-563l338 486q47 67 67.5 110.5t20.5 83.5q0 36 -34 64t-75 28q-57 0 -96 -30.5t-45 -98.5z" />
    <glyph glyph-name="three.superior" horiz-adv-x="690" 
d="M98 1044l277 361h-316v115h553l-266 -338q120 0 203.5 -75.5t83.5 -203.5q0 -126 -95 -210.5t-225 -84.5q-105 0 -172.5 32.5t-128.5 125.5l103 76q59 -107 188 -107q71 0 131 45t60 113q0 80 -57 133t-146 53q-46 0 -92.5 -16.5t-77.5 -42.5z" />
    <glyph glyph-name="a.superior" horiz-adv-x="763" 
d="M532 1233v43q0 38 -18.5 64.5t-50 40t-63.5 19t-68 5.5q-89 0 -187 -43l-51 108q127 50 250 50q90 0 162 -22t119 -72t47 -123v-445h-119v70q-87 -84 -221 -84q-131 0 -216 63t-85 174q0 97 79 160.5t216 63.5q120 0 206 -72zM535 1071q0 46 -46 82.5t-139 36.5
q-90 0 -135 -36.5t-45 -82.5t45 -79.5t137 -33.5t137.5 34t45.5 79z" />
    <glyph glyph-name="o.superior" horiz-adv-x="909" 
d="M70 1180q0 140 109 240t276 100t276 -100t109 -240q0 -141 -106.5 -238.5t-278.5 -97.5t-278.5 97.5t-106.5 238.5zM221 1178q0 -91 67 -155.5t167 -64.5t166.5 64.5t66.5 155.5q0 92 -68.5 153.5t-164.5 61.5q-95 0 -164.5 -62t-69.5 -153z" />
    </font>
</defs>
</svg>
